<svg width="60" height="60" viewBox="0 0 60 60" fill="none" xmlns="http://www.w3.org/2000/svg">
<path d="M16.9733 40.24C25.36 39.84 24.68 29.4 20.1467 24.9733C16.16 21.08 9.34665 19.2667 2.65332 24.84C18.2933 15.68 24.5067 34.68 18.8267 36.6267C13.4933 38.4533 11.68 32.3067 15.3067 29.5067C15.16 29.5467 15.0133 29.6 14.8667 29.6533C9.51999 33.52 12.5867 40.44 16.9733 40.24Z" fill="url(#paint0_linear_44_2791)"/>
<path d="M24.9867 28.8533C22.0533 20.88 10.28 16.12 2.42667 24.9733C2.50667 24.92 2.58667 24.88 2.66667 24.84C9.34667 19.2667 16.1733 21.08 20.16 24.9733C24.6933 29.4 25.3733 39.84 16.9867 40.24C12.6 40.4533 9.53333 33.52 14.88 29.6533C7.49333 32.16 7.93333 39.0933 13 41.8267C22.16 46.76 28 37.0533 24.9867 28.8533Z" fill="url(#paint1_linear_44_2791)"/>
<path d="M46.4 41.7067C42.08 41.0667 38.52 37.1333 37.2133 35.52C37.0933 35.3867 36.96 35.24 36.8533 35.0933C42.5333 45.8133 56.9333 46.0667 55.84 35.9333C54.68 40.4533 51.08 42.4 46.4 41.7067Z" fill="url(#paint2_linear_44_2791)"/>
<path d="M46.4 41.7066C51.08 42.4 54.68 40.4533 55.84 35.9333C55.84 35.9066 55.84 35.88 55.84 35.8533C53.2133 41.5866 42.28 41.16 37.2267 35.52C38.52 37.1333 42.08 41.0666 46.4 41.7066Z" fill="url(#paint3_linear_44_2791)"/>
<path d="M13.96 16.88C23.2533 17.04 30.3867 25.3733 38.7333 30.3866C47.3466 35.56 55.12 30.9866 55.6533 25.1866C56.1733 19.5333 50.64 15.3466 45.6666 15.08C45.64 15.0933 45.6 15.0933 45.5733 15.1066C53.4133 17.0266 51.5733 25.32 48.16 27.56C38.3067 34 16.3333 -1.34671 1.22665 25.4C1.42665 25.16 1.62665 24.92 1.82665 24.6933C3.46665 22.12 7.67999 16.7733 13.96 16.88Z" fill="url(#paint4_linear_44_2791)"/>
<path d="M45.6533 15.08C50.64 15.3466 56.16 19.5333 55.64 25.1866C55.1067 30.9866 47.3333 35.5733 38.72 30.3866C30.36 25.36 23.24 17.04 13.9467 16.88C7.67999 16.7733 3.46665 22.12 1.79999 24.6933C6.99999 18.6 11.68 17.0266 17.12 18.9333C27.6 22.6 35.2933 36.96 47.48 35.9866C65.72 34.5333 59.5067 10.7466 45.6533 15.08Z" fill="url(#paint5_linear_44_2791)"/>
<path d="M42.5867 24.72C42.36 24.72 42.1867 24.5466 42.1867 24.32V18.5066C42.1867 18.28 42.36 18.1066 42.5867 18.1066C42.8133 18.1066 42.9867 18.28 42.9867 18.5066V24.32C42.9867 24.5466 42.8 24.72 42.5867 24.72Z" fill="url(#paint6_linear_44_2791)"/>
<path d="M45.4933 21.8266H39.68C39.4533 21.8266 39.28 21.6533 39.28 21.4266C39.28 21.1999 39.4533 21.0266 39.68 21.0266H45.4933C45.72 21.0266 45.8933 21.1999 45.8933 21.4266C45.8933 21.6399 45.7067 21.8266 45.4933 21.8266Z" fill="url(#paint7_linear_44_2791)"/>
<path d="M40.5333 23.88C40.4267 23.88 40.3333 23.84 40.2533 23.76C40.0933 23.6 40.0933 23.3466 40.2533 23.1866L44.36 19.08C44.52 18.92 44.7733 18.92 44.92 19.08C45.08 19.24 45.08 19.4933 44.92 19.64L40.8133 23.7466C40.7333 23.84 40.6267 23.88 40.5333 23.88Z" fill="url(#paint8_linear_44_2791)"/>
<path d="M44.64 23.8799C44.5333 23.8799 44.44 23.8399 44.36 23.7599L40.2533 19.6533C40.0933 19.4933 40.0933 19.2399 40.2533 19.0933C40.4133 18.9333 40.6667 18.9333 40.8133 19.0933L44.92 23.1999C45.08 23.3599 45.08 23.6133 44.92 23.7733C44.84 23.8399 44.7467 23.8799 44.64 23.8799Z" fill="url(#paint9_linear_44_2791)"/>
<path d="M29.5067 43.4C29.28 43.4 29.1067 43.2267 29.1067 43V37.2C29.1067 36.9733 29.28 36.8 29.5067 36.8C29.7333 36.8 29.9067 36.9733 29.9067 37.2V43.0133C29.9067 43.2267 29.7333 43.4 29.5067 43.4Z" fill="url(#paint10_linear_44_2791)"/>
<path d="M32.4133 40.5067H26.6C26.3733 40.5067 26.2 40.3333 26.2 40.1067C26.2 39.88 26.3733 39.7067 26.6 39.7067H32.4133C32.64 39.7067 32.8133 39.88 32.8133 40.1067C32.8133 40.32 32.64 40.5067 32.4133 40.5067Z" fill="url(#paint11_linear_44_2791)"/>
<path d="M27.4533 42.56C27.3466 42.56 27.2533 42.52 27.1733 42.44C27.0133 42.28 27.0133 42.0267 27.1733 41.8667L31.28 37.76C31.44 37.6 31.6933 37.6 31.84 37.76C32 37.92 32 38.1733 31.84 38.32L27.7333 42.44C27.6533 42.52 27.56 42.56 27.4533 42.56Z" fill="url(#paint12_linear_44_2791)"/>
<path d="M31.56 42.56C31.4533 42.56 31.36 42.52 31.28 42.44L27.1733 38.3333C27.0133 38.1733 27.0133 37.92 27.1733 37.7733C27.3333 37.6133 27.5866 37.6133 27.7466 37.7733L31.8533 41.88C32.0133 42.04 32.0133 42.2933 31.8533 42.4533C31.76 42.52 31.6666 42.56 31.56 42.56Z" fill="url(#paint13_linear_44_2791)"/>
<path d="M42.7067 51.24C42.48 51.24 42.3067 51.0666 42.3067 50.84V45.0266C42.3067 44.8 42.4933 44.6266 42.7067 44.6266C42.9333 44.6266 43.1067 44.8 43.1067 45.0266V50.84C43.1067 51.0533 42.9333 51.24 42.7067 51.24Z" fill="url(#paint14_linear_44_2791)"/>
<path d="M45.6133 48.3333H39.8C39.5733 48.3333 39.4 48.16 39.4 47.9333C39.4 47.7067 39.5733 47.5333 39.8 47.5333H45.6133C45.84 47.5333 46.0133 47.7067 46.0133 47.9333C46.0133 48.16 45.8267 48.3333 45.6133 48.3333Z" fill="url(#paint15_linear_44_2791)"/>
<path d="M40.6533 50.3866C40.5467 50.3866 40.4533 50.3466 40.3733 50.2666C40.2133 50.1066 40.2133 49.8533 40.3733 49.7066L44.48 45.6C44.64 45.44 44.8933 45.44 45.04 45.6C45.2 45.76 45.2 46.0133 45.04 46.16L40.9333 50.2666C40.8533 50.3466 40.76 50.3866 40.6533 50.3866Z" fill="url(#paint16_linear_44_2791)"/>
<path d="M44.76 50.3866C44.6533 50.3866 44.56 50.3466 44.48 50.2666L40.3733 46.16C40.2133 46 40.2133 45.7466 40.3733 45.6C40.5333 45.44 40.7867 45.44 40.9467 45.6L45.0533 49.7066C45.2133 49.8666 45.2133 50.12 45.0533 50.2666C44.96 50.3466 44.8667 50.3866 44.76 50.3866Z" fill="url(#paint17_linear_44_2791)"/>
<path d="M27.64 14.44C27.4133 14.44 27.24 14.2667 27.24 14.04V8.22666C27.24 8.01333 27.4133 7.82666 27.64 7.82666C27.8667 7.82666 28.04 7.99999 28.04 8.22666V14.04C28.04 14.2533 27.8667 14.44 27.64 14.44Z" fill="url(#paint18_linear_44_2791)"/>
<path d="M30.5466 11.5333H24.7333C24.5066 11.5333 24.3333 11.36 24.3333 11.1333C24.3333 10.9067 24.5066 10.7333 24.7333 10.7333H30.5466C30.7733 10.7333 30.9466 10.9067 30.9466 11.1333C30.9466 11.3467 30.7733 11.5333 30.5466 11.5333Z" fill="url(#paint19_linear_44_2791)"/>
<path d="M25.5866 13.5867C25.48 13.5867 25.3866 13.5467 25.3066 13.4667C25.1466 13.3067 25.1466 13.0533 25.3066 12.9067L29.4133 8.79999C29.5733 8.63999 29.8266 8.63999 29.9866 8.79999C30.1466 8.95999 30.1466 9.21333 29.9866 9.37333L25.8666 13.4667C25.7866 13.5467 25.6933 13.5867 25.5866 13.5867Z" fill="url(#paint20_linear_44_2791)"/>
<path d="M29.6933 13.5867C29.5866 13.5867 29.4933 13.5467 29.4133 13.4667L25.3066 9.36002C25.1466 9.20002 25.1466 8.94669 25.3066 8.78669C25.4666 8.62669 25.72 8.62669 25.88 8.78669L29.9866 12.8934C30.1466 13.0534 30.1466 13.3067 29.9866 13.4534C29.8933 13.5467 29.8 13.5867 29.6933 13.5867Z" fill="url(#paint21_linear_44_2791)"/>
<path d="M31.12 53.1067C30.9733 53.1067 30.8533 52.9867 30.8533 52.84V49C30.8533 48.8533 30.9733 48.7333 31.12 48.7333C31.2667 48.7333 31.3867 48.8533 31.3867 49V52.84C31.3867 52.9867 31.2667 53.1067 31.12 53.1067Z" fill="url(#paint22_linear_44_2791)"/>
<path d="M33.04 51.1867H29.2C29.0533 51.1867 28.9333 51.0667 28.9333 50.92C28.9333 50.7733 29.0533 50.6533 29.2 50.6533H33.04C33.1867 50.6533 33.3067 50.7733 33.3067 50.92C33.3067 51.0667 33.1867 51.1867 33.04 51.1867Z" fill="url(#paint23_linear_44_2791)"/>
<path d="M29.7733 52.5467C29.7067 52.5467 29.64 52.52 29.5867 52.4667C29.48 52.36 29.48 52.2 29.5867 52.0933L32.3067 49.3733C32.4133 49.2667 32.5733 49.2667 32.68 49.3733C32.7867 49.48 32.7867 49.64 32.68 49.7467L29.96 52.4667C29.9067 52.52 29.84 52.5467 29.7733 52.5467Z" fill="url(#paint24_linear_44_2791)"/>
<path d="M32.48 52.5467C32.4133 52.5467 32.3466 52.52 32.2933 52.4667L29.5733 49.7467C29.4666 49.64 29.4666 49.48 29.5733 49.3733C29.68 49.2667 29.84 49.2667 29.9467 49.3733L32.6666 52.0933C32.7733 52.2 32.7733 52.36 32.6666 52.4667C32.6133 52.52 32.5467 52.5467 32.48 52.5467Z" fill="url(#paint25_linear_44_2791)"/>
<path d="M39.72 11.2666C39.5733 11.2666 39.4533 11.1466 39.4533 11V7.15998C39.4533 7.01331 39.5733 6.89331 39.72 6.89331C39.8667 6.89331 39.9867 7.01331 39.9867 7.15998V11C39.9867 11.1466 39.8667 11.2666 39.72 11.2666Z" fill="url(#paint26_linear_44_2791)"/>
<path d="M41.64 9.34663H37.8C37.6533 9.34663 37.5333 9.22663 37.5333 9.07996C37.5333 8.93329 37.6533 8.81329 37.8 8.81329H41.64C41.7867 8.81329 41.9067 8.93329 41.9067 9.07996C41.9067 9.22663 41.7867 9.34663 41.64 9.34663Z" fill="url(#paint27_linear_44_2791)"/>
<path d="M38.36 10.7066C38.2933 10.7066 38.2267 10.68 38.1733 10.6266C38.0667 10.52 38.0667 10.36 38.1733 10.2533L40.8933 7.53331C41 7.42664 41.16 7.42664 41.2667 7.53331C41.3733 7.63997 41.3733 7.79997 41.2667 7.90664L38.5467 10.6266C38.4933 10.68 38.4267 10.7066 38.36 10.7066Z" fill="url(#paint28_linear_44_2791)"/>
<path d="M41.08 10.7066C41.0133 10.7066 40.9467 10.68 40.8933 10.6266L38.1733 7.90664C38.0667 7.79997 38.0667 7.63997 38.1733 7.53331C38.28 7.42664 38.44 7.42664 38.5467 7.53331L41.2667 10.2533C41.3733 10.36 41.3733 10.52 41.2667 10.6266C41.2133 10.68 41.1467 10.7066 41.08 10.7066Z" fill="url(#paint29_linear_44_2791)"/>
<path d="M54.6666 51.24C54.52 51.24 54.4 51.12 54.4 50.9733V47.1333C54.4 46.9866 54.52 46.8666 54.6666 46.8666C54.8133 46.8666 54.9333 46.9866 54.9333 47.1333V50.9733C54.9333 51.12 54.8133 51.24 54.6666 51.24Z" fill="url(#paint30_linear_44_2791)"/>
<path d="M56.5866 49.32H52.7466C52.6 49.32 52.48 49.2 52.48 49.0533C52.48 48.9066 52.6 48.7866 52.7466 48.7866H56.5866C56.7333 48.7866 56.8533 48.9066 56.8533 49.0533C56.84 49.2 56.7333 49.32 56.5866 49.32Z" fill="url(#paint31_linear_44_2791)"/>
<path d="M53.3066 50.68C53.24 50.68 53.1733 50.6533 53.12 50.6C53.0133 50.4933 53.0133 50.3333 53.12 50.2266L55.84 47.5066C55.9466 47.4 56.1066 47.4 56.2133 47.5066C56.32 47.6133 56.32 47.7733 56.2133 47.88L53.4933 50.6C53.44 50.6533 53.3733 50.68 53.3066 50.68Z" fill="url(#paint32_linear_44_2791)"/>
<path d="M56.0133 50.68C55.9466 50.68 55.88 50.6533 55.8266 50.6L53.1066 47.88C53 47.7733 53 47.6133 53.1066 47.5066C53.2133 47.4 53.3733 47.4 53.48 47.5066L56.2 50.2266C56.3066 50.3333 56.3066 50.4933 56.2 50.6C56.16 50.6533 56.0933 50.68 56.0133 50.68Z" fill="url(#paint33_linear_44_2791)"/>
<defs>
<linearGradient id="paint0_linear_44_2791" x1="17.3308" y1="23.4475" x2="8.99072" y2="36.7063" gradientUnits="userSpaceOnUse">
<stop stop-color="#9CF2FF"/>
<stop offset="0.4019" stop-color="#9AF0FF"/>
<stop offset="0.6274" stop-color="#91E8FF"/>
<stop offset="0.8092" stop-color="#84DBFF"/>
<stop offset="0.9669" stop-color="#70C9FF"/>
<stop offset="1" stop-color="#6BC4FF"/>
</linearGradient>
<linearGradient id="paint1_linear_44_2791" x1="3.47708" y1="13.8739" x2="23.1896" y2="41.5825" gradientUnits="userSpaceOnUse">
<stop stop-color="#99E8FF"/>
<stop offset="0.2786" stop-color="#96E6FF"/>
<stop offset="0.4778" stop-color="#8DE0FF"/>
<stop offset="0.6522" stop-color="#7DD5FF"/>
<stop offset="0.8123" stop-color="#67C6FF"/>
<stop offset="0.9614" stop-color="#4BB3FF"/>
<stop offset="1" stop-color="#42ADFF"/>
</linearGradient>
<linearGradient id="paint2_linear_44_2791" x1="36.0292" y1="27.5789" x2="53.7851" y2="42.5993" gradientUnits="userSpaceOnUse">
<stop stop-color="#99E8FF"/>
<stop offset="0.2786" stop-color="#96E6FF"/>
<stop offset="0.4778" stop-color="#8DE0FF"/>
<stop offset="0.6522" stop-color="#7DD5FF"/>
<stop offset="0.8123" stop-color="#67C6FF"/>
<stop offset="0.9614" stop-color="#4BB3FF"/>
<stop offset="1" stop-color="#42ADFF"/>
</linearGradient>
<linearGradient id="paint3_linear_44_2791" x1="37.9506" y1="37.0094" x2="54.6739" y2="39.2587" gradientUnits="userSpaceOnUse">
<stop stop-color="#9CF2FF"/>
<stop offset="0.4019" stop-color="#9AF0FF"/>
<stop offset="0.6274" stop-color="#91E8FF"/>
<stop offset="0.8092" stop-color="#84DBFF"/>
<stop offset="0.9669" stop-color="#70C9FF"/>
<stop offset="1" stop-color="#6BC4FF"/>
</linearGradient>
<linearGradient id="paint4_linear_44_2791" x1="0.751548" y1="14.8048" x2="51.9265" y2="26.8935" gradientUnits="userSpaceOnUse">
<stop stop-color="#9CF2FF"/>
<stop offset="0.4019" stop-color="#9AF0FF"/>
<stop offset="0.6274" stop-color="#91E8FF"/>
<stop offset="0.8092" stop-color="#84DBFF"/>
<stop offset="0.9669" stop-color="#70C9FF"/>
<stop offset="1" stop-color="#6BC4FF"/>
</linearGradient>
<linearGradient id="paint5_linear_44_2791" x1="12.8443" y1="-1.345" x2="43.8901" y2="42.294" gradientUnits="userSpaceOnUse">
<stop stop-color="#99E8FF"/>
<stop offset="0.2786" stop-color="#96E6FF"/>
<stop offset="0.4778" stop-color="#8DE0FF"/>
<stop offset="0.6522" stop-color="#7DD5FF"/>
<stop offset="0.8123" stop-color="#67C6FF"/>
<stop offset="0.9614" stop-color="#4BB3FF"/>
<stop offset="1" stop-color="#42ADFF"/>
</linearGradient>
<linearGradient id="paint6_linear_44_2791" x1="42.5837" y1="17.9826" x2="42.5837" y2="24.7441" gradientUnits="userSpaceOnUse">
<stop stop-color="#99E8FF"/>
<stop offset="0.2786" stop-color="#96E6FF"/>
<stop offset="0.4778" stop-color="#8DE0FF"/>
<stop offset="0.6522" stop-color="#7DD5FF"/>
<stop offset="0.8123" stop-color="#67C6FF"/>
<stop offset="0.9614" stop-color="#4BB3FF"/>
<stop offset="1" stop-color="#42ADFF"/>
</linearGradient>
<linearGradient id="paint7_linear_44_2791" x1="42.5837" y1="17.9871" x2="42.5837" y2="24.7411" gradientUnits="userSpaceOnUse">
<stop stop-color="#99E8FF"/>
<stop offset="0.2786" stop-color="#96E6FF"/>
<stop offset="0.4778" stop-color="#8DE0FF"/>
<stop offset="0.6522" stop-color="#7DD5FF"/>
<stop offset="0.8123" stop-color="#67C6FF"/>
<stop offset="0.9614" stop-color="#4BB3FF"/>
<stop offset="1" stop-color="#42ADFF"/>
</linearGradient>
<linearGradient id="paint8_linear_44_2791" x1="42.583" y1="17.9828" x2="42.583" y2="24.7451" gradientUnits="userSpaceOnUse">
<stop stop-color="#99E8FF"/>
<stop offset="0.2786" stop-color="#96E6FF"/>
<stop offset="0.4778" stop-color="#8DE0FF"/>
<stop offset="0.6522" stop-color="#7DD5FF"/>
<stop offset="0.8123" stop-color="#67C6FF"/>
<stop offset="0.9614" stop-color="#4BB3FF"/>
<stop offset="1" stop-color="#42ADFF"/>
</linearGradient>
<linearGradient id="paint9_linear_44_2791" x1="42.583" y1="17.9828" x2="42.583" y2="24.7451" gradientUnits="userSpaceOnUse">
<stop stop-color="#99E8FF"/>
<stop offset="0.2786" stop-color="#96E6FF"/>
<stop offset="0.4778" stop-color="#8DE0FF"/>
<stop offset="0.6522" stop-color="#7DD5FF"/>
<stop offset="0.8123" stop-color="#67C6FF"/>
<stop offset="0.9614" stop-color="#4BB3FF"/>
<stop offset="1" stop-color="#42ADFF"/>
</linearGradient>
<linearGradient id="paint10_linear_44_2791" x1="29.5081" y1="36.6616" x2="29.5081" y2="43.4231" gradientUnits="userSpaceOnUse">
<stop stop-color="#99E8FF"/>
<stop offset="0.2786" stop-color="#96E6FF"/>
<stop offset="0.4778" stop-color="#8DE0FF"/>
<stop offset="0.6522" stop-color="#7DD5FF"/>
<stop offset="0.8123" stop-color="#67C6FF"/>
<stop offset="0.9614" stop-color="#4BB3FF"/>
<stop offset="1" stop-color="#42ADFF"/>
</linearGradient>
<linearGradient id="paint11_linear_44_2791" x1="29.5084" y1="36.6663" x2="29.5084" y2="43.4202" gradientUnits="userSpaceOnUse">
<stop stop-color="#99E8FF"/>
<stop offset="0.2786" stop-color="#96E6FF"/>
<stop offset="0.4778" stop-color="#8DE0FF"/>
<stop offset="0.6522" stop-color="#7DD5FF"/>
<stop offset="0.8123" stop-color="#67C6FF"/>
<stop offset="0.9614" stop-color="#4BB3FF"/>
<stop offset="1" stop-color="#42ADFF"/>
</linearGradient>
<linearGradient id="paint12_linear_44_2791" x1="29.508" y1="36.662" x2="29.508" y2="43.4242" gradientUnits="userSpaceOnUse">
<stop stop-color="#99E8FF"/>
<stop offset="0.2786" stop-color="#96E6FF"/>
<stop offset="0.4778" stop-color="#8DE0FF"/>
<stop offset="0.6522" stop-color="#7DD5FF"/>
<stop offset="0.8123" stop-color="#67C6FF"/>
<stop offset="0.9614" stop-color="#4BB3FF"/>
<stop offset="1" stop-color="#42ADFF"/>
</linearGradient>
<linearGradient id="paint13_linear_44_2791" x1="29.508" y1="36.6619" x2="29.508" y2="43.4241" gradientUnits="userSpaceOnUse">
<stop stop-color="#99E8FF"/>
<stop offset="0.2786" stop-color="#96E6FF"/>
<stop offset="0.4778" stop-color="#8DE0FF"/>
<stop offset="0.6522" stop-color="#7DD5FF"/>
<stop offset="0.8123" stop-color="#67C6FF"/>
<stop offset="0.9614" stop-color="#4BB3FF"/>
<stop offset="1" stop-color="#42ADFF"/>
</linearGradient>
<linearGradient id="paint14_linear_44_2791" x1="42.7073" y1="44.495" x2="42.7073" y2="51.2572" gradientUnits="userSpaceOnUse">
<stop stop-color="#99E8FF"/>
<stop offset="0.2786" stop-color="#96E6FF"/>
<stop offset="0.4778" stop-color="#8DE0FF"/>
<stop offset="0.6522" stop-color="#7DD5FF"/>
<stop offset="0.8123" stop-color="#67C6FF"/>
<stop offset="0.9614" stop-color="#4BB3FF"/>
<stop offset="1" stop-color="#42ADFF"/>
</linearGradient>
<linearGradient id="paint15_linear_44_2791" x1="42.7076" y1="44.4996" x2="42.7076" y2="51.2536" gradientUnits="userSpaceOnUse">
<stop stop-color="#99E8FF"/>
<stop offset="0.2786" stop-color="#96E6FF"/>
<stop offset="0.4778" stop-color="#8DE0FF"/>
<stop offset="0.6522" stop-color="#7DD5FF"/>
<stop offset="0.8123" stop-color="#67C6FF"/>
<stop offset="0.9614" stop-color="#4BB3FF"/>
<stop offset="1" stop-color="#42ADFF"/>
</linearGradient>
<linearGradient id="paint16_linear_44_2791" x1="42.7076" y1="44.4953" x2="42.7076" y2="51.2575" gradientUnits="userSpaceOnUse">
<stop stop-color="#99E8FF"/>
<stop offset="0.2786" stop-color="#96E6FF"/>
<stop offset="0.4778" stop-color="#8DE0FF"/>
<stop offset="0.6522" stop-color="#7DD5FF"/>
<stop offset="0.8123" stop-color="#67C6FF"/>
<stop offset="0.9614" stop-color="#4BB3FF"/>
<stop offset="1" stop-color="#42ADFF"/>
</linearGradient>
<linearGradient id="paint17_linear_44_2791" x1="42.7076" y1="44.4953" x2="42.7076" y2="51.2575" gradientUnits="userSpaceOnUse">
<stop stop-color="#99E8FF"/>
<stop offset="0.2786" stop-color="#96E6FF"/>
<stop offset="0.4778" stop-color="#8DE0FF"/>
<stop offset="0.6522" stop-color="#7DD5FF"/>
<stop offset="0.8123" stop-color="#67C6FF"/>
<stop offset="0.9614" stop-color="#4BB3FF"/>
<stop offset="1" stop-color="#42ADFF"/>
</linearGradient>
<linearGradient id="paint18_linear_44_2791" x1="27.6408" y1="7.69166" x2="27.6408" y2="14.4523" gradientUnits="userSpaceOnUse">
<stop stop-color="#99E8FF"/>
<stop offset="0.2786" stop-color="#96E6FF"/>
<stop offset="0.4778" stop-color="#8DE0FF"/>
<stop offset="0.6522" stop-color="#7DD5FF"/>
<stop offset="0.8123" stop-color="#67C6FF"/>
<stop offset="0.9614" stop-color="#4BB3FF"/>
<stop offset="1" stop-color="#42ADFF"/>
</linearGradient>
<linearGradient id="paint19_linear_44_2791" x1="27.6408" y1="7.69219" x2="27.6408" y2="14.4519" gradientUnits="userSpaceOnUse">
<stop stop-color="#99E8FF"/>
<stop offset="0.2786" stop-color="#96E6FF"/>
<stop offset="0.4778" stop-color="#8DE0FF"/>
<stop offset="0.6522" stop-color="#7DD5FF"/>
<stop offset="0.8123" stop-color="#67C6FF"/>
<stop offset="0.9614" stop-color="#4BB3FF"/>
<stop offset="1" stop-color="#42ADFF"/>
</linearGradient>
<linearGradient id="paint20_linear_44_2791" x1="27.6408" y1="7.69106" x2="27.6408" y2="14.4525" gradientUnits="userSpaceOnUse">
<stop stop-color="#99E8FF"/>
<stop offset="0.2786" stop-color="#96E6FF"/>
<stop offset="0.4778" stop-color="#8DE0FF"/>
<stop offset="0.6522" stop-color="#7DD5FF"/>
<stop offset="0.8123" stop-color="#67C6FF"/>
<stop offset="0.9614" stop-color="#4BB3FF"/>
<stop offset="1" stop-color="#42ADFF"/>
</linearGradient>
<linearGradient id="paint21_linear_44_2791" x1="27.6408" y1="7.69109" x2="27.6408" y2="14.4526" gradientUnits="userSpaceOnUse">
<stop stop-color="#99E8FF"/>
<stop offset="0.2786" stop-color="#96E6FF"/>
<stop offset="0.4778" stop-color="#8DE0FF"/>
<stop offset="0.6522" stop-color="#7DD5FF"/>
<stop offset="0.8123" stop-color="#67C6FF"/>
<stop offset="0.9614" stop-color="#4BB3FF"/>
<stop offset="1" stop-color="#42ADFF"/>
</linearGradient>
<linearGradient id="paint22_linear_44_2791" x1="31.1257" y1="48.6479" x2="31.1257" y2="53.1166" gradientUnits="userSpaceOnUse">
<stop stop-color="#99E8FF"/>
<stop offset="0.2786" stop-color="#96E6FF"/>
<stop offset="0.4778" stop-color="#8DE0FF"/>
<stop offset="0.6522" stop-color="#7DD5FF"/>
<stop offset="0.8123" stop-color="#67C6FF"/>
<stop offset="0.9614" stop-color="#4BB3FF"/>
<stop offset="1" stop-color="#42ADFF"/>
</linearGradient>
<linearGradient id="paint23_linear_44_2791" x1="31.126" y1="48.6469" x2="31.126" y2="53.1169" gradientUnits="userSpaceOnUse">
<stop stop-color="#99E8FF"/>
<stop offset="0.2786" stop-color="#96E6FF"/>
<stop offset="0.4778" stop-color="#8DE0FF"/>
<stop offset="0.6522" stop-color="#7DD5FF"/>
<stop offset="0.8123" stop-color="#67C6FF"/>
<stop offset="0.9614" stop-color="#4BB3FF"/>
<stop offset="1" stop-color="#42ADFF"/>
</linearGradient>
<linearGradient id="paint24_linear_44_2791" x1="31.1257" y1="48.6474" x2="31.1257" y2="53.1169" gradientUnits="userSpaceOnUse">
<stop stop-color="#99E8FF"/>
<stop offset="0.2786" stop-color="#96E6FF"/>
<stop offset="0.4778" stop-color="#8DE0FF"/>
<stop offset="0.6522" stop-color="#7DD5FF"/>
<stop offset="0.8123" stop-color="#67C6FF"/>
<stop offset="0.9614" stop-color="#4BB3FF"/>
<stop offset="1" stop-color="#42ADFF"/>
</linearGradient>
<linearGradient id="paint25_linear_44_2791" x1="31.1256" y1="48.6474" x2="31.1256" y2="53.1169" gradientUnits="userSpaceOnUse">
<stop stop-color="#99E8FF"/>
<stop offset="0.2786" stop-color="#96E6FF"/>
<stop offset="0.4778" stop-color="#8DE0FF"/>
<stop offset="0.6522" stop-color="#7DD5FF"/>
<stop offset="0.8123" stop-color="#67C6FF"/>
<stop offset="0.9614" stop-color="#4BB3FF"/>
<stop offset="1" stop-color="#42ADFF"/>
</linearGradient>
<linearGradient id="paint26_linear_44_2791" x1="39.7182" y1="6.80704" x2="39.7182" y2="11.2758" gradientUnits="userSpaceOnUse">
<stop stop-color="#99E8FF"/>
<stop offset="0.2786" stop-color="#96E6FF"/>
<stop offset="0.4778" stop-color="#8DE0FF"/>
<stop offset="0.6522" stop-color="#7DD5FF"/>
<stop offset="0.8123" stop-color="#67C6FF"/>
<stop offset="0.9614" stop-color="#4BB3FF"/>
<stop offset="1" stop-color="#42ADFF"/>
</linearGradient>
<linearGradient id="paint27_linear_44_2791" x1="39.7182" y1="6.80639" x2="39.7182" y2="11.2757" gradientUnits="userSpaceOnUse">
<stop stop-color="#99E8FF"/>
<stop offset="0.2786" stop-color="#96E6FF"/>
<stop offset="0.4778" stop-color="#8DE0FF"/>
<stop offset="0.6522" stop-color="#7DD5FF"/>
<stop offset="0.8123" stop-color="#67C6FF"/>
<stop offset="0.9614" stop-color="#4BB3FF"/>
<stop offset="1" stop-color="#42ADFF"/>
</linearGradient>
<linearGradient id="paint28_linear_44_2791" x1="39.7179" y1="6.80655" x2="39.7179" y2="11.276" gradientUnits="userSpaceOnUse">
<stop stop-color="#99E8FF"/>
<stop offset="0.2786" stop-color="#96E6FF"/>
<stop offset="0.4778" stop-color="#8DE0FF"/>
<stop offset="0.6522" stop-color="#7DD5FF"/>
<stop offset="0.8123" stop-color="#67C6FF"/>
<stop offset="0.9614" stop-color="#4BB3FF"/>
<stop offset="1" stop-color="#42ADFF"/>
</linearGradient>
<linearGradient id="paint29_linear_44_2791" x1="39.7179" y1="6.80655" x2="39.7179" y2="11.276" gradientUnits="userSpaceOnUse">
<stop stop-color="#99E8FF"/>
<stop offset="0.2786" stop-color="#96E6FF"/>
<stop offset="0.4778" stop-color="#8DE0FF"/>
<stop offset="0.6522" stop-color="#7DD5FF"/>
<stop offset="0.8123" stop-color="#67C6FF"/>
<stop offset="0.9614" stop-color="#4BB3FF"/>
<stop offset="1" stop-color="#42ADFF"/>
</linearGradient>
<linearGradient id="paint30_linear_44_2791" x1="54.6615" y1="46.7802" x2="54.6615" y2="51.2489" gradientUnits="userSpaceOnUse">
<stop stop-color="#99E8FF"/>
<stop offset="0.2786" stop-color="#96E6FF"/>
<stop offset="0.4778" stop-color="#8DE0FF"/>
<stop offset="0.6522" stop-color="#7DD5FF"/>
<stop offset="0.8123" stop-color="#67C6FF"/>
<stop offset="0.9614" stop-color="#4BB3FF"/>
<stop offset="1" stop-color="#42ADFF"/>
</linearGradient>
<linearGradient id="paint31_linear_44_2791" x1="54.6614" y1="46.7791" x2="54.6614" y2="51.2491" gradientUnits="userSpaceOnUse">
<stop stop-color="#99E8FF"/>
<stop offset="0.2786" stop-color="#96E6FF"/>
<stop offset="0.4778" stop-color="#8DE0FF"/>
<stop offset="0.6522" stop-color="#7DD5FF"/>
<stop offset="0.8123" stop-color="#67C6FF"/>
<stop offset="0.9614" stop-color="#4BB3FF"/>
<stop offset="1" stop-color="#42ADFF"/>
</linearGradient>
<linearGradient id="paint32_linear_44_2791" x1="54.6612" y1="46.7797" x2="54.6612" y2="51.2491" gradientUnits="userSpaceOnUse">
<stop stop-color="#99E8FF"/>
<stop offset="0.2786" stop-color="#96E6FF"/>
<stop offset="0.4778" stop-color="#8DE0FF"/>
<stop offset="0.6522" stop-color="#7DD5FF"/>
<stop offset="0.8123" stop-color="#67C6FF"/>
<stop offset="0.9614" stop-color="#4BB3FF"/>
<stop offset="1" stop-color="#42ADFF"/>
</linearGradient>
<linearGradient id="paint33_linear_44_2791" x1="54.6612" y1="46.7797" x2="54.6612" y2="51.2491" gradientUnits="userSpaceOnUse">
<stop stop-color="#99E8FF"/>
<stop offset="0.2786" stop-color="#96E6FF"/>
<stop offset="0.4778" stop-color="#8DE0FF"/>
<stop offset="0.6522" stop-color="#7DD5FF"/>
<stop offset="0.8123" stop-color="#67C6FF"/>
<stop offset="0.9614" stop-color="#4BB3FF"/>
<stop offset="1" stop-color="#42ADFF"/>
</linearGradient>
</defs>
</svg>
