<svg width="450" height="647" viewBox="0 0 450 647" fill="none" xmlns="http://www.w3.org/2000/svg">
<g clip-path="url(#clip0_149_1002)">
<g filter="url(#filter0_d_149_1002)">
<path d="M127.3 301.8C190.2 298.8 185.1 220.5 151.1 187.3C121.2 158.1 70.1 144.5 19.9 186.3C137.2 117.6 183.8 260.1 141.2 274.7C101.2 288.4 87.6 242.3 114.8 221.3C113.7 221.6 112.6 222 111.5 222.4C71.4 251.4 94.4 303.3 127.3 301.8Z" fill="url(#paint0_linear_149_1002)"/>
<path d="M187.4 216.4C165.4 156.6 77.1 120.9 18.2 187.3C18.8 186.9 19.4 186.6 20 186.3C70.1 144.5 121.3 158.1 151.2 187.3C185.2 220.5 190.3 298.8 127.4 301.8C94.5 303.4 71.5 251.4 111.6 222.4C56.2 241.2 59.5 293.2 97.5 313.7C166.2 350.7 210 277.9 187.4 216.4Z" fill="url(#paint1_linear_149_1002)"/>
<path d="M348 312.8C315.6 308 288.9 278.5 279.1 266.4C278.2 265.4 277.2 264.3 276.4 263.2C319 343.6 427 345.5 418.8 269.5C410.1 303.4 383.1 318 348 312.8Z" fill="url(#paint2_linear_149_1002)"/>
<path d="M348 312.8C383.1 318 410.1 303.4 418.8 269.5C418.8 269.3 418.8 269.1 418.8 268.9C399.1 311.9 317.1 308.7 279.2 266.4C288.9 278.5 315.6 308 348 312.8Z" fill="url(#paint3_linear_149_1002)"/>
<path d="M104.7 126.6C174.4 127.8 227.9 190.3 290.5 227.9C355.1 266.7 413.4 232.4 417.4 188.9C421.3 146.5 379.8 115.1 342.5 113.1C342.3 113.2 342 113.2 341.8 113.3C400.6 127.7 386.8 189.9 361.2 206.7C287.3 255 122.5 -10.1 9.20001 190.5C10.7 188.7 12.2 186.9 13.7 185.2C26 165.9 57.6 125.8 104.7 126.6Z" fill="url(#paint4_linear_149_1002)"/>
<path d="M342.4 113.1C379.8 115.1 421.2 146.5 417.3 188.9C413.3 232.4 355 266.8 290.4 227.9C227.7 190.2 174.3 127.8 104.6 126.6C57.6 125.8 26 165.9 13.5 185.2C52.5 139.5 87.6 127.7 128.4 142C207 169.5 264.7 277.2 356.1 269.9C492.9 259 446.3 80.6 342.4 113.1Z" fill="url(#paint5_linear_149_1002)"/>
<path d="M319.4 185.4C317.7 185.4 316.4 184.1 316.4 182.4V138.8C316.4 137.1 317.7 135.8 319.4 135.8C321.1 135.8 322.4 137.1 322.4 138.8V182.4C322.4 184.1 321 185.4 319.4 185.4Z" fill="url(#paint6_linear_149_1002)"/>
<path d="M341.2 163.7H297.6C295.9 163.7 294.6 162.4 294.6 160.7C294.6 159 295.9 157.7 297.6 157.7H341.2C342.9 157.7 344.2 159 344.2 160.7C344.2 162.3 342.8 163.7 341.2 163.7Z" fill="url(#paint7_linear_149_1002)"/>
<path d="M304 179.1C303.2 179.1 302.5 178.8 301.9 178.2C300.7 177 300.7 175.1 301.9 173.9L332.7 143.1C333.9 141.9 335.8 141.9 336.9 143.1C338.1 144.3 338.1 146.2 336.9 147.3L306.1 178.1C305.5 178.8 304.7 179.1 304 179.1Z" fill="url(#paint8_linear_149_1002)"/>
<path d="M334.8 179.1C334 179.1 333.3 178.8 332.7 178.2L301.9 147.4C300.7 146.2 300.7 144.3 301.9 143.2C303.1 142 305 142 306.1 143.2L336.9 174C338.1 175.2 338.1 177.1 336.9 178.3C336.3 178.8 335.6 179.1 334.8 179.1Z" fill="url(#paint9_linear_149_1002)"/>
<path d="M221.3 325.5C219.6 325.5 218.3 324.2 218.3 322.5V279C218.3 277.3 219.6 276 221.3 276C223 276 224.3 277.3 224.3 279V322.6C224.3 324.2 223 325.5 221.3 325.5Z" fill="url(#paint10_linear_149_1002)"/>
<path d="M243.1 303.8H199.5C197.8 303.8 196.5 302.5 196.5 300.8C196.5 299.1 197.8 297.8 199.5 297.8H243.1C244.8 297.8 246.1 299.1 246.1 300.8C246.1 302.4 244.8 303.8 243.1 303.8Z" fill="url(#paint11_linear_149_1002)"/>
<path d="M205.9 319.2C205.1 319.2 204.4 318.9 203.8 318.3C202.6 317.1 202.6 315.2 203.8 314L234.6 283.2C235.8 282 237.7 282 238.8 283.2C240 284.4 240 286.3 238.8 287.4L208 318.3C207.4 318.9 206.7 319.2 205.9 319.2Z" fill="url(#paint12_linear_149_1002)"/>
<path d="M236.7 319.2C235.9 319.2 235.2 318.9 234.6 318.3L203.8 287.5C202.6 286.3 202.6 284.4 203.8 283.3C205 282.1 206.9 282.1 208.1 283.3L238.9 314.1C240.1 315.3 240.1 317.2 238.9 318.4C238.2 318.9 237.5 319.2 236.7 319.2Z" fill="url(#paint13_linear_149_1002)"/>
<path d="M320.3 384.3C318.6 384.3 317.3 383 317.3 381.3V337.7C317.3 336 318.7 334.7 320.3 334.7C322 334.7 323.3 336 323.3 337.7V381.3C323.3 382.9 322 384.3 320.3 384.3Z" fill="url(#paint14_linear_149_1002)"/>
<path d="M342.1 362.5H298.5C296.8 362.5 295.5 361.2 295.5 359.5C295.5 357.8 296.8 356.5 298.5 356.5H342.1C343.8 356.5 345.1 357.8 345.1 359.5C345.1 361.2 343.7 362.5 342.1 362.5Z" fill="url(#paint15_linear_149_1002)"/>
<path d="M304.9 377.9C304.1 377.9 303.4 377.6 302.8 377C301.6 375.8 301.6 373.9 302.8 372.8L333.6 342C334.8 340.8 336.7 340.8 337.8 342C339 343.2 339 345.1 337.8 346.2L307 377C306.4 377.6 305.7 377.9 304.9 377.9Z" fill="url(#paint16_linear_149_1002)"/>
<path d="M335.7 377.9C334.9 377.9 334.2 377.6 333.6 377L302.8 346.2C301.6 345 301.6 343.1 302.8 342C304 340.8 305.9 340.8 307.1 342L337.9 372.8C339.1 374 339.1 375.9 337.9 377C337.2 377.6 336.5 377.9 335.7 377.9Z" fill="url(#paint17_linear_149_1002)"/>
<path d="M207.3 108.3C205.6 108.3 204.3 107 204.3 105.3V61.7C204.3 60.1 205.6 58.7 207.3 58.7C209 58.7 210.3 60 210.3 61.7V105.3C210.3 106.9 209 108.3 207.3 108.3Z" fill="url(#paint18_linear_149_1002)"/>
<path d="M229.1 86.5H185.5C183.8 86.5 182.5 85.2 182.5 83.5C182.5 81.8 183.8 80.5 185.5 80.5H229.1C230.8 80.5 232.1 81.8 232.1 83.5C232.1 85.1 230.8 86.5 229.1 86.5Z" fill="url(#paint19_linear_149_1002)"/>
<path d="M191.9 101.9C191.1 101.9 190.4 101.6 189.8 101C188.6 99.8 188.6 97.9 189.8 96.8L220.6 66C221.8 64.8 223.7 64.8 224.9 66C226.1 67.2 226.1 69.1 224.9 70.3L194 101C193.4 101.6 192.7 101.9 191.9 101.9Z" fill="url(#paint20_linear_149_1002)"/>
<path d="M222.7 101.9C221.9 101.9 221.2 101.6 220.6 101L189.8 70.2C188.6 69 188.6 67.1 189.8 65.9C191 64.7 192.9 64.7 194.1 65.9L224.9 96.7C226.1 97.9 226.1 99.8 224.9 100.9C224.2 101.6 223.5 101.9 222.7 101.9Z" fill="url(#paint21_linear_149_1002)"/>
<path d="M233.4 398.3C232.3 398.3 231.4 397.4 231.4 396.3V367.5C231.4 366.4 232.3 365.5 233.4 365.5C234.5 365.5 235.4 366.4 235.4 367.5V396.3C235.4 397.4 234.5 398.3 233.4 398.3Z" fill="url(#paint22_linear_149_1002)"/>
<path d="M247.8 383.9H219C217.9 383.9 217 383 217 381.9C217 380.8 217.9 379.9 219 379.9H247.8C248.9 379.9 249.8 380.8 249.8 381.9C249.8 383 248.9 383.9 247.8 383.9Z" fill="url(#paint23_linear_149_1002)"/>
<path d="M223.3 394.1C222.8 394.1 222.3 393.9 221.9 393.5C221.1 392.7 221.1 391.5 221.9 390.7L242.3 370.3C243.1 369.5 244.3 369.5 245.1 370.3C245.9 371.1 245.9 372.3 245.1 373.1L224.7 393.5C224.3 393.9 223.8 394.1 223.3 394.1Z" fill="url(#paint24_linear_149_1002)"/>
<path d="M243.6 394.1C243.1 394.1 242.6 393.9 242.2 393.5L221.8 373.1C221 372.3 221 371.1 221.8 370.3C222.6 369.5 223.8 369.5 224.6 370.3L245 390.7C245.8 391.5 245.8 392.7 245 393.5C244.6 393.9 244.1 394.1 243.6 394.1Z" fill="url(#paint25_linear_149_1002)"/>
<path d="M297.9 84.5C296.8 84.5 295.9 83.6 295.9 82.5V53.7C295.9 52.6 296.8 51.7 297.9 51.7C299 51.7 299.9 52.6 299.9 53.7V82.5C299.9 83.6 299 84.5 297.9 84.5Z" fill="url(#paint26_linear_149_1002)"/>
<path d="M312.3 70.1H283.5C282.4 70.1 281.5 69.2 281.5 68.1C281.5 67 282.4 66.1 283.5 66.1H312.3C313.4 66.1 314.3 67 314.3 68.1C314.3 69.2 313.4 70.1 312.3 70.1Z" fill="url(#paint27_linear_149_1002)"/>
<path d="M287.7 80.3C287.2 80.3 286.7 80.1 286.3 79.7C285.5 78.9 285.5 77.7 286.3 76.9L306.7 56.5C307.5 55.7 308.7 55.7 309.5 56.5C310.3 57.3 310.3 58.5 309.5 59.3L289.1 79.7C288.7 80.1 288.2 80.3 287.7 80.3Z" fill="url(#paint28_linear_149_1002)"/>
<path d="M308.1 80.3C307.6 80.3 307.1 80.1 306.7 79.7L286.3 59.3C285.5 58.5 285.5 57.3 286.3 56.5C287.1 55.7 288.3 55.7 289.1 56.5L309.5 76.9C310.3 77.7 310.3 78.9 309.5 79.7C309.1 80.1 308.6 80.3 308.1 80.3Z" fill="url(#paint29_linear_149_1002)"/>
<path d="M410 384.3C408.9 384.3 408 383.4 408 382.3V353.5C408 352.4 408.9 351.5 410 351.5C411.1 351.5 412 352.4 412 353.5V382.3C412 383.4 411.1 384.3 410 384.3Z" fill="url(#paint30_linear_149_1002)"/>
<path d="M424.4 369.9H395.6C394.5 369.9 393.6 369 393.6 367.9C393.6 366.8 394.5 365.9 395.6 365.9H424.4C425.5 365.9 426.4 366.8 426.4 367.9C426.3 369 425.5 369.9 424.4 369.9Z" fill="url(#paint31_linear_149_1002)"/>
<path d="M399.8 380.1C399.3 380.1 398.8 379.9 398.4 379.5C397.6 378.7 397.6 377.5 398.4 376.7L418.8 356.3C419.6 355.5 420.8 355.5 421.6 356.3C422.4 357.1 422.4 358.3 421.6 359.1L401.2 379.5C400.8 379.9 400.3 380.1 399.8 380.1Z" fill="url(#paint32_linear_149_1002)"/>
<path d="M420.1 380.1C419.6 380.1 419.1 379.9 418.7 379.5L398.3 359.1C397.5 358.3 397.5 357.1 398.3 356.3C399.1 355.5 400.3 355.5 401.1 356.3L421.5 376.7C422.3 377.5 422.3 378.7 421.5 379.5C421.2 379.9 420.7 380.1 420.1 380.1Z" fill="url(#paint33_linear_149_1002)"/>
</g>
</g>
<g filter="url(#filter1_f_149_1002)">
<ellipse cx="225" cy="586" rx="112" ry="14" fill="#212121"/>
</g>
<defs>
<filter id="filter0_d_149_1002" x="-5.79999" y="30.7" width="461.699" height="376.6" filterUnits="userSpaceOnUse" color-interpolation-filters="sRGB">
<feFlood flood-opacity="0" result="BackgroundImageFix"/>
<feColorMatrix in="SourceAlpha" type="matrix" values="0 0 0 0 0 0 0 0 0 0 0 0 0 0 0 0 0 0 127 0" result="hardAlpha"/>
<feOffset dy="-6"/>
<feGaussianBlur stdDeviation="7.5"/>
<feComposite in2="hardAlpha" operator="out"/>
<feColorMatrix type="matrix" values="0 0 0 0 0 0 0 0 0 0 0 0 0 0 0 0 0 0 0.25 0"/>
<feBlend mode="normal" in2="BackgroundImageFix" result="effect1_dropShadow_149_1002"/>
<feBlend mode="normal" in="SourceGraphic" in2="effect1_dropShadow_149_1002" result="shape"/>
</filter>
<filter id="filter1_f_149_1002" x="66" y="525" width="318" height="122" filterUnits="userSpaceOnUse" color-interpolation-filters="sRGB">
<feFlood flood-opacity="0" result="BackgroundImageFix"/>
<feBlend mode="normal" in="SourceGraphic" in2="BackgroundImageFix" result="shape"/>
<feGaussianBlur stdDeviation="23.5" result="effect1_foregroundBlur_149_1002"/>
</filter>
<linearGradient id="paint0_linear_149_1002" x1="129.981" y1="175.856" x2="67.4305" y2="275.297" gradientUnits="userSpaceOnUse">
<stop stop-color="#9CF2FF"/>
<stop offset="0.4019" stop-color="#9AF0FF"/>
<stop offset="0.6274" stop-color="#91E8FF"/>
<stop offset="0.8092" stop-color="#84DBFF"/>
<stop offset="0.9669" stop-color="#70C9FF"/>
<stop offset="1" stop-color="#6BC4FF"/>
</linearGradient>
<linearGradient id="paint1_linear_149_1002" x1="26.0781" y1="104.054" x2="173.922" y2="311.869" gradientUnits="userSpaceOnUse">
<stop stop-color="#99E8FF"/>
<stop offset="0.2786" stop-color="#96E6FF"/>
<stop offset="0.4778" stop-color="#8DE0FF"/>
<stop offset="0.6522" stop-color="#7DD5FF"/>
<stop offset="0.8123" stop-color="#67C6FF"/>
<stop offset="0.9614" stop-color="#4BB3FF"/>
<stop offset="1" stop-color="#42ADFF"/>
</linearGradient>
<linearGradient id="paint2_linear_149_1002" x1="270.219" y1="206.842" x2="403.388" y2="319.495" gradientUnits="userSpaceOnUse">
<stop stop-color="#99E8FF"/>
<stop offset="0.2786" stop-color="#96E6FF"/>
<stop offset="0.4778" stop-color="#8DE0FF"/>
<stop offset="0.6522" stop-color="#7DD5FF"/>
<stop offset="0.8123" stop-color="#67C6FF"/>
<stop offset="0.9614" stop-color="#4BB3FF"/>
<stop offset="1" stop-color="#42ADFF"/>
</linearGradient>
<linearGradient id="paint3_linear_149_1002" x1="284.629" y1="277.571" x2="410.054" y2="294.441" gradientUnits="userSpaceOnUse">
<stop stop-color="#9CF2FF"/>
<stop offset="0.4019" stop-color="#9AF0FF"/>
<stop offset="0.6274" stop-color="#91E8FF"/>
<stop offset="0.8092" stop-color="#84DBFF"/>
<stop offset="0.9669" stop-color="#70C9FF"/>
<stop offset="1" stop-color="#6BC4FF"/>
</linearGradient>
<linearGradient id="paint4_linear_149_1002" x1="5.63671" y1="111.036" x2="389.449" y2="201.701" gradientUnits="userSpaceOnUse">
<stop stop-color="#9CF2FF"/>
<stop offset="0.4019" stop-color="#9AF0FF"/>
<stop offset="0.6274" stop-color="#91E8FF"/>
<stop offset="0.8092" stop-color="#84DBFF"/>
<stop offset="0.9669" stop-color="#70C9FF"/>
<stop offset="1" stop-color="#6BC4FF"/>
</linearGradient>
<linearGradient id="paint5_linear_149_1002" x1="96.3324" y1="-10.0874" x2="329.176" y2="317.205" gradientUnits="userSpaceOnUse">
<stop stop-color="#99E8FF"/>
<stop offset="0.2786" stop-color="#96E6FF"/>
<stop offset="0.4778" stop-color="#8DE0FF"/>
<stop offset="0.6522" stop-color="#7DD5FF"/>
<stop offset="0.8123" stop-color="#67C6FF"/>
<stop offset="0.9614" stop-color="#4BB3FF"/>
<stop offset="1" stop-color="#42ADFF"/>
</linearGradient>
<linearGradient id="paint6_linear_149_1002" x1="319.378" y1="134.87" x2="319.378" y2="185.581" gradientUnits="userSpaceOnUse">
<stop stop-color="#99E8FF"/>
<stop offset="0.2786" stop-color="#96E6FF"/>
<stop offset="0.4778" stop-color="#8DE0FF"/>
<stop offset="0.6522" stop-color="#7DD5FF"/>
<stop offset="0.8123" stop-color="#67C6FF"/>
<stop offset="0.9614" stop-color="#4BB3FF"/>
<stop offset="1" stop-color="#42ADFF"/>
</linearGradient>
<linearGradient id="paint7_linear_149_1002" x1="319.378" y1="134.904" x2="319.378" y2="185.559" gradientUnits="userSpaceOnUse">
<stop stop-color="#99E8FF"/>
<stop offset="0.2786" stop-color="#96E6FF"/>
<stop offset="0.4778" stop-color="#8DE0FF"/>
<stop offset="0.6522" stop-color="#7DD5FF"/>
<stop offset="0.8123" stop-color="#67C6FF"/>
<stop offset="0.9614" stop-color="#4BB3FF"/>
<stop offset="1" stop-color="#42ADFF"/>
</linearGradient>
<linearGradient id="paint8_linear_149_1002" x1="319.372" y1="134.872" x2="319.372" y2="185.589" gradientUnits="userSpaceOnUse">
<stop stop-color="#99E8FF"/>
<stop offset="0.2786" stop-color="#96E6FF"/>
<stop offset="0.4778" stop-color="#8DE0FF"/>
<stop offset="0.6522" stop-color="#7DD5FF"/>
<stop offset="0.8123" stop-color="#67C6FF"/>
<stop offset="0.9614" stop-color="#4BB3FF"/>
<stop offset="1" stop-color="#42ADFF"/>
</linearGradient>
<linearGradient id="paint9_linear_149_1002" x1="319.372" y1="134.872" x2="319.372" y2="185.589" gradientUnits="userSpaceOnUse">
<stop stop-color="#99E8FF"/>
<stop offset="0.2786" stop-color="#96E6FF"/>
<stop offset="0.4778" stop-color="#8DE0FF"/>
<stop offset="0.6522" stop-color="#7DD5FF"/>
<stop offset="0.8123" stop-color="#67C6FF"/>
<stop offset="0.9614" stop-color="#4BB3FF"/>
<stop offset="1" stop-color="#42ADFF"/>
</linearGradient>
<linearGradient id="paint10_linear_149_1002" x1="221.311" y1="274.962" x2="221.311" y2="325.673" gradientUnits="userSpaceOnUse">
<stop stop-color="#99E8FF"/>
<stop offset="0.2786" stop-color="#96E6FF"/>
<stop offset="0.4778" stop-color="#8DE0FF"/>
<stop offset="0.6522" stop-color="#7DD5FF"/>
<stop offset="0.8123" stop-color="#67C6FF"/>
<stop offset="0.9614" stop-color="#4BB3FF"/>
<stop offset="1" stop-color="#42ADFF"/>
</linearGradient>
<linearGradient id="paint11_linear_149_1002" x1="221.313" y1="274.997" x2="221.313" y2="325.652" gradientUnits="userSpaceOnUse">
<stop stop-color="#99E8FF"/>
<stop offset="0.2786" stop-color="#96E6FF"/>
<stop offset="0.4778" stop-color="#8DE0FF"/>
<stop offset="0.6522" stop-color="#7DD5FF"/>
<stop offset="0.8123" stop-color="#67C6FF"/>
<stop offset="0.9614" stop-color="#4BB3FF"/>
<stop offset="1" stop-color="#42ADFF"/>
</linearGradient>
<linearGradient id="paint12_linear_149_1002" x1="221.31" y1="274.965" x2="221.31" y2="325.681" gradientUnits="userSpaceOnUse">
<stop stop-color="#99E8FF"/>
<stop offset="0.2786" stop-color="#96E6FF"/>
<stop offset="0.4778" stop-color="#8DE0FF"/>
<stop offset="0.6522" stop-color="#7DD5FF"/>
<stop offset="0.8123" stop-color="#67C6FF"/>
<stop offset="0.9614" stop-color="#4BB3FF"/>
<stop offset="1" stop-color="#42ADFF"/>
</linearGradient>
<linearGradient id="paint13_linear_149_1002" x1="221.31" y1="274.965" x2="221.31" y2="325.681" gradientUnits="userSpaceOnUse">
<stop stop-color="#99E8FF"/>
<stop offset="0.2786" stop-color="#96E6FF"/>
<stop offset="0.4778" stop-color="#8DE0FF"/>
<stop offset="0.6522" stop-color="#7DD5FF"/>
<stop offset="0.8123" stop-color="#67C6FF"/>
<stop offset="0.9614" stop-color="#4BB3FF"/>
<stop offset="1" stop-color="#42ADFF"/>
</linearGradient>
<linearGradient id="paint14_linear_149_1002" x1="320.305" y1="333.713" x2="320.305" y2="384.429" gradientUnits="userSpaceOnUse">
<stop stop-color="#99E8FF"/>
<stop offset="0.2786" stop-color="#96E6FF"/>
<stop offset="0.4778" stop-color="#8DE0FF"/>
<stop offset="0.6522" stop-color="#7DD5FF"/>
<stop offset="0.8123" stop-color="#67C6FF"/>
<stop offset="0.9614" stop-color="#4BB3FF"/>
<stop offset="1" stop-color="#42ADFF"/>
</linearGradient>
<linearGradient id="paint15_linear_149_1002" x1="320.307" y1="333.747" x2="320.307" y2="384.402" gradientUnits="userSpaceOnUse">
<stop stop-color="#99E8FF"/>
<stop offset="0.2786" stop-color="#96E6FF"/>
<stop offset="0.4778" stop-color="#8DE0FF"/>
<stop offset="0.6522" stop-color="#7DD5FF"/>
<stop offset="0.8123" stop-color="#67C6FF"/>
<stop offset="0.9614" stop-color="#4BB3FF"/>
<stop offset="1" stop-color="#42ADFF"/>
</linearGradient>
<linearGradient id="paint16_linear_149_1002" x1="320.307" y1="333.715" x2="320.307" y2="384.431" gradientUnits="userSpaceOnUse">
<stop stop-color="#99E8FF"/>
<stop offset="0.2786" stop-color="#96E6FF"/>
<stop offset="0.4778" stop-color="#8DE0FF"/>
<stop offset="0.6522" stop-color="#7DD5FF"/>
<stop offset="0.8123" stop-color="#67C6FF"/>
<stop offset="0.9614" stop-color="#4BB3FF"/>
<stop offset="1" stop-color="#42ADFF"/>
</linearGradient>
<linearGradient id="paint17_linear_149_1002" x1="320.307" y1="333.715" x2="320.307" y2="384.431" gradientUnits="userSpaceOnUse">
<stop stop-color="#99E8FF"/>
<stop offset="0.2786" stop-color="#96E6FF"/>
<stop offset="0.4778" stop-color="#8DE0FF"/>
<stop offset="0.6522" stop-color="#7DD5FF"/>
<stop offset="0.8123" stop-color="#67C6FF"/>
<stop offset="0.9614" stop-color="#4BB3FF"/>
<stop offset="1" stop-color="#42ADFF"/>
</linearGradient>
<linearGradient id="paint18_linear_149_1002" x1="207.306" y1="57.6875" x2="207.306" y2="108.393" gradientUnits="userSpaceOnUse">
<stop stop-color="#99E8FF"/>
<stop offset="0.2786" stop-color="#96E6FF"/>
<stop offset="0.4778" stop-color="#8DE0FF"/>
<stop offset="0.6522" stop-color="#7DD5FF"/>
<stop offset="0.8123" stop-color="#67C6FF"/>
<stop offset="0.9614" stop-color="#4BB3FF"/>
<stop offset="1" stop-color="#42ADFF"/>
</linearGradient>
<linearGradient id="paint19_linear_149_1002" x1="207.306" y1="57.6914" x2="207.306" y2="108.389" gradientUnits="userSpaceOnUse">
<stop stop-color="#99E8FF"/>
<stop offset="0.2786" stop-color="#96E6FF"/>
<stop offset="0.4778" stop-color="#8DE0FF"/>
<stop offset="0.6522" stop-color="#7DD5FF"/>
<stop offset="0.8123" stop-color="#67C6FF"/>
<stop offset="0.9614" stop-color="#4BB3FF"/>
<stop offset="1" stop-color="#42ADFF"/>
</linearGradient>
<linearGradient id="paint20_linear_149_1002" x1="207.306" y1="57.683" x2="207.306" y2="108.394" gradientUnits="userSpaceOnUse">
<stop stop-color="#99E8FF"/>
<stop offset="0.2786" stop-color="#96E6FF"/>
<stop offset="0.4778" stop-color="#8DE0FF"/>
<stop offset="0.6522" stop-color="#7DD5FF"/>
<stop offset="0.8123" stop-color="#67C6FF"/>
<stop offset="0.9614" stop-color="#4BB3FF"/>
<stop offset="1" stop-color="#42ADFF"/>
</linearGradient>
<linearGradient id="paint21_linear_149_1002" x1="207.306" y1="57.683" x2="207.306" y2="108.394" gradientUnits="userSpaceOnUse">
<stop stop-color="#99E8FF"/>
<stop offset="0.2786" stop-color="#96E6FF"/>
<stop offset="0.4778" stop-color="#8DE0FF"/>
<stop offset="0.6522" stop-color="#7DD5FF"/>
<stop offset="0.8123" stop-color="#67C6FF"/>
<stop offset="0.9614" stop-color="#4BB3FF"/>
<stop offset="1" stop-color="#42ADFF"/>
</linearGradient>
<linearGradient id="paint22_linear_149_1002" x1="233.443" y1="364.859" x2="233.443" y2="398.375" gradientUnits="userSpaceOnUse">
<stop stop-color="#99E8FF"/>
<stop offset="0.2786" stop-color="#96E6FF"/>
<stop offset="0.4778" stop-color="#8DE0FF"/>
<stop offset="0.6522" stop-color="#7DD5FF"/>
<stop offset="0.8123" stop-color="#67C6FF"/>
<stop offset="0.9614" stop-color="#4BB3FF"/>
<stop offset="1" stop-color="#42ADFF"/>
</linearGradient>
<linearGradient id="paint23_linear_149_1002" x1="233.445" y1="364.852" x2="233.445" y2="398.377" gradientUnits="userSpaceOnUse">
<stop stop-color="#99E8FF"/>
<stop offset="0.2786" stop-color="#96E6FF"/>
<stop offset="0.4778" stop-color="#8DE0FF"/>
<stop offset="0.6522" stop-color="#7DD5FF"/>
<stop offset="0.8123" stop-color="#67C6FF"/>
<stop offset="0.9614" stop-color="#4BB3FF"/>
<stop offset="1" stop-color="#42ADFF"/>
</linearGradient>
<linearGradient id="paint24_linear_149_1002" x1="233.443" y1="364.855" x2="233.443" y2="398.376" gradientUnits="userSpaceOnUse">
<stop stop-color="#99E8FF"/>
<stop offset="0.2786" stop-color="#96E6FF"/>
<stop offset="0.4778" stop-color="#8DE0FF"/>
<stop offset="0.6522" stop-color="#7DD5FF"/>
<stop offset="0.8123" stop-color="#67C6FF"/>
<stop offset="0.9614" stop-color="#4BB3FF"/>
<stop offset="1" stop-color="#42ADFF"/>
</linearGradient>
<linearGradient id="paint25_linear_149_1002" x1="233.442" y1="364.855" x2="233.442" y2="398.376" gradientUnits="userSpaceOnUse">
<stop stop-color="#99E8FF"/>
<stop offset="0.2786" stop-color="#96E6FF"/>
<stop offset="0.4778" stop-color="#8DE0FF"/>
<stop offset="0.6522" stop-color="#7DD5FF"/>
<stop offset="0.8123" stop-color="#67C6FF"/>
<stop offset="0.9614" stop-color="#4BB3FF"/>
<stop offset="1" stop-color="#42ADFF"/>
</linearGradient>
<linearGradient id="paint26_linear_149_1002" x1="297.886" y1="51.053" x2="297.886" y2="84.5687" gradientUnits="userSpaceOnUse">
<stop stop-color="#99E8FF"/>
<stop offset="0.2786" stop-color="#96E6FF"/>
<stop offset="0.4778" stop-color="#8DE0FF"/>
<stop offset="0.6522" stop-color="#7DD5FF"/>
<stop offset="0.8123" stop-color="#67C6FF"/>
<stop offset="0.9614" stop-color="#4BB3FF"/>
<stop offset="1" stop-color="#42ADFF"/>
</linearGradient>
<linearGradient id="paint27_linear_149_1002" x1="297.886" y1="51.0482" x2="297.886" y2="84.5684" gradientUnits="userSpaceOnUse">
<stop stop-color="#99E8FF"/>
<stop offset="0.2786" stop-color="#96E6FF"/>
<stop offset="0.4778" stop-color="#8DE0FF"/>
<stop offset="0.6522" stop-color="#7DD5FF"/>
<stop offset="0.8123" stop-color="#67C6FF"/>
<stop offset="0.9614" stop-color="#4BB3FF"/>
<stop offset="1" stop-color="#42ADFF"/>
</linearGradient>
<linearGradient id="paint28_linear_149_1002" x1="297.884" y1="51.0493" x2="297.884" y2="84.5704" gradientUnits="userSpaceOnUse">
<stop stop-color="#99E8FF"/>
<stop offset="0.2786" stop-color="#96E6FF"/>
<stop offset="0.4778" stop-color="#8DE0FF"/>
<stop offset="0.6522" stop-color="#7DD5FF"/>
<stop offset="0.8123" stop-color="#67C6FF"/>
<stop offset="0.9614" stop-color="#4BB3FF"/>
<stop offset="1" stop-color="#42ADFF"/>
</linearGradient>
<linearGradient id="paint29_linear_149_1002" x1="297.884" y1="51.0493" x2="297.884" y2="84.5704" gradientUnits="userSpaceOnUse">
<stop stop-color="#99E8FF"/>
<stop offset="0.2786" stop-color="#96E6FF"/>
<stop offset="0.4778" stop-color="#8DE0FF"/>
<stop offset="0.6522" stop-color="#7DD5FF"/>
<stop offset="0.8123" stop-color="#67C6FF"/>
<stop offset="0.9614" stop-color="#4BB3FF"/>
<stop offset="1" stop-color="#42ADFF"/>
</linearGradient>
<linearGradient id="paint30_linear_149_1002" x1="409.961" y1="350.851" x2="409.961" y2="384.367" gradientUnits="userSpaceOnUse">
<stop stop-color="#99E8FF"/>
<stop offset="0.2786" stop-color="#96E6FF"/>
<stop offset="0.4778" stop-color="#8DE0FF"/>
<stop offset="0.6522" stop-color="#7DD5FF"/>
<stop offset="0.8123" stop-color="#67C6FF"/>
<stop offset="0.9614" stop-color="#4BB3FF"/>
<stop offset="1" stop-color="#42ADFF"/>
</linearGradient>
<linearGradient id="paint31_linear_149_1002" x1="409.961" y1="350.844" x2="409.961" y2="384.369" gradientUnits="userSpaceOnUse">
<stop stop-color="#99E8FF"/>
<stop offset="0.2786" stop-color="#96E6FF"/>
<stop offset="0.4778" stop-color="#8DE0FF"/>
<stop offset="0.6522" stop-color="#7DD5FF"/>
<stop offset="0.8123" stop-color="#67C6FF"/>
<stop offset="0.9614" stop-color="#4BB3FF"/>
<stop offset="1" stop-color="#42ADFF"/>
</linearGradient>
<linearGradient id="paint32_linear_149_1002" x1="409.959" y1="350.848" x2="409.959" y2="384.369" gradientUnits="userSpaceOnUse">
<stop stop-color="#99E8FF"/>
<stop offset="0.2786" stop-color="#96E6FF"/>
<stop offset="0.4778" stop-color="#8DE0FF"/>
<stop offset="0.6522" stop-color="#7DD5FF"/>
<stop offset="0.8123" stop-color="#67C6FF"/>
<stop offset="0.9614" stop-color="#4BB3FF"/>
<stop offset="1" stop-color="#42ADFF"/>
</linearGradient>
<linearGradient id="paint33_linear_149_1002" x1="409.959" y1="350.848" x2="409.959" y2="384.369" gradientUnits="userSpaceOnUse">
<stop stop-color="#99E8FF"/>
<stop offset="0.2786" stop-color="#96E6FF"/>
<stop offset="0.4778" stop-color="#8DE0FF"/>
<stop offset="0.6522" stop-color="#7DD5FF"/>
<stop offset="0.8123" stop-color="#67C6FF"/>
<stop offset="0.9614" stop-color="#4BB3FF"/>
<stop offset="1" stop-color="#42ADFF"/>
</linearGradient>
<clipPath id="clip0_149_1002">
<rect width="450" height="450" fill="white"/>
</clipPath>
</defs>
</svg>
