<svg width="450" height="647" viewBox="0 0 450 647" fill="none" xmlns="http://www.w3.org/2000/svg">
<path d="M364.2 189.3C404.7 116.7 263.8 76.8 279 180.2C272.6 145.9 209.3 143.5 205.4 185C201.9 113 58.5 148.4 117.6 249.6C141.6 290.7 275.8 295.7 375.6 267.7C470.5 241.2 413.6 146.3 364.2 189.3Z" fill="url(#paint0_linear_148_576)"/>
<path d="M420.5 208.4C423.8 241.6 376.4 238 380.3 214.2C382.5 201.1 403.2 200.3 400.4 215.8C395 204.4 381.9 222.5 398.6 222.2C409 222 410.5 209.7 404.4 203C389.5 186.6 364.5 205.9 377.9 228.6C367.1 223.3 364.6 211.2 366.8 203.3C370 192.1 378.5 185.9 386.1 185.6C395.8 185.1 418.4 187.5 420.5 208.4Z" fill="url(#paint1_linear_148_576)"/>
<path d="M269.4 184.7C272.8 217.9 225.3 214.3 229.2 190.4C231.4 177.3 252.1 176.6 249.3 192C243.9 180.6 230.9 198.7 247.5 198.4C257.9 198.2 259.4 185.9 253.3 179.2C238.4 162.8 213.4 182.1 226.8 204.8C216 199.5 213.5 187.4 215.7 179.5C218.9 168.2 227.4 162.1 235 161.8C244.8 161.3 267.3 163.7 269.4 184.7Z" fill="url(#paint2_linear_148_576)"/>
<path d="M179.1 188.4C182.9 226.5 128.5 222.3 133 195C135.5 180 159.2 179.1 156 196.8C149.8 183.7 134.9 204.5 153.9 204.1C165.8 203.9 167.6 189.8 160.6 182.1C143.5 163.3 114.9 185.4 130.2 211.4C117.9 205.4 114.9 191.5 117.5 182.4C121.2 169.5 130.9 162.5 139.7 162.1C150.8 161.6 176.7 164.4 179.1 188.4Z" fill="url(#paint3_linear_148_576)"/>
<path d="M361.8 163.4C366.8 213.6 295.1 208.1 301.1 172.1C304.4 152.3 335.7 151.2 331.5 174.5C323.3 157.3 303.6 184.6 328.7 184.2C344.4 183.9 346.7 165.3 337.5 155.2C315 130.4 277.3 159.6 297.4 193.8C281.1 185.9 277.2 167.5 280.6 155.6C285.4 138.6 298.3 129.3 309.8 128.8C324.5 128.1 358.6 131.8 361.8 163.4Z" fill="url(#paint4_linear_148_576)"/>
<g filter="url(#filter0_d_148_576)">
<path d="M205.7 158.8C205.7 158.8 187.8 138.4 207.1 107.3C218.6 88.8 237.6 67 222.5 44C246.7 65.9 246.5 84.9 235.2 112.4C225.9 135.3 249.5 157 249.5 157L205.7 158.8Z" fill="url(#paint5_radial_148_576)"/>
<path d="M165.6 181.5C165.6 181.5 139.9 172.8 141.1 136.2C141.8 114.4 147.4 86 122.8 73.7C154.7 80.6 164 97.1 168.1 126.6C171.5 151 202.7 158.1 202.7 158.1L165.6 181.5Z" fill="url(#paint6_radial_148_576)"/>
<path d="M142.2 221.3C142.2 221.3 115.5 226.6 98.3 194.3C88 175.1 78.7 147.7 51.2 149.3C82.3 139.3 98.6 149 116.8 172.5C131.9 192 162.5 182.4 162.5 182.4L142.2 221.3Z" fill="url(#paint7_radial_148_576)"/>
<path d="M141.8 267.4C141.8 267.4 121.4 285.3 90.3 266C71.8 254.5 50 235.5 27 250.7C49 226.5 67.9 226.7 95.4 237.9C118.3 247.2 140 223.6 140 223.6L141.8 267.4Z" fill="url(#paint8_radial_148_576)"/>
<path d="M164.5 307.6C164.5 307.6 155.8 333.3 119.2 332.1C97.4 331.4 69.1 325.8 56.7 350.4C63.6 318.5 80.1 309.2 109.6 305.1C134.1 301.7 141.1 270.5 141.1 270.5L164.5 307.6Z" fill="url(#paint9_radial_148_576)"/>
<path d="M167.8 379.7C171.1 378.1 174.3 376.5 177.3 374.9C209.6 357.7 204.3 331 204.3 331L165.4 310.6C165.4 310.6 175 341.2 155.5 356.3C145.6 364 138.2 371.4 133.7 379.6C145.1 379.2 156.5 379.4 167.8 379.7Z" fill="url(#paint10_radial_148_576)"/>
<path d="M220.9 377.7C220.4 379 219.9 380.2 219.5 381.4C229.5 381.7 239.4 382 249.4 382.3C268.1 351.5 250.5 331.4 250.5 331.4L206.7 333.2C206.6 333.1 230.2 354.8 220.9 377.7Z" fill="url(#paint11_radial_148_576)"/>
<path d="M288.2 363.5C289.2 370.9 290.6 377.5 292.5 383.3C295 383.3 297.6 383.4 300.1 383.4C304.4 383 308.8 382.7 313.1 382.3C313.5 382.3 313.8 382.2 314.2 382.2C313.7 372.7 314.8 362.8 315.1 353.9C316.3 317.3 290.6 308.6 290.6 308.6L253.5 332C253.5 332 284.8 339.1 288.2 363.5Z" fill="url(#paint12_radial_148_576)"/>
<path d="M314 268.8C314 268.8 340.7 263.5 357.9 295.8C368.2 315 377.5 342.4 405 340.8C373.9 350.8 357.6 341.2 339.3 317.6C324.2 298.1 293.6 307.7 293.6 307.7L314 268.8Z" fill="url(#paint13_radial_148_576)"/>
<path d="M314.4 222.7C314.4 222.7 334.8 204.8 365.9 224.1C384.4 235.6 406.2 254.6 429.2 239.5C407.3 263.7 388.3 263.5 360.8 252.2C337.9 242.9 316.2 266.5 316.2 266.5L314.4 222.7Z" fill="url(#paint14_radial_148_576)"/>
<path d="M291.6 182.5C291.6 182.5 300.3 156.8 336.9 158C358.7 158.7 387 164.3 399.4 139.7C392.5 171.6 376 180.9 346.5 185C322 188.4 315.1 219.6 315.1 219.6L291.6 182.5Z" fill="url(#paint15_radial_148_576)"/>
<path d="M251.8 159.1C251.8 159.1 246.5 132.5 278.8 115.2C298 104.9 325.4 95.6 323.7 68.1C333.7 99.1 324 115.5 300.5 133.7C281 148.8 290.6 179.4 290.6 179.4L251.8 159.1Z" fill="url(#paint16_radial_148_576)"/>
<path d="M324.1 242C322.4 189 278.1 147.4 225.1 149C172.1 150.7 130.5 195 132.1 248C133.8 301 178.1 342.6 231.1 341C284.1 339.4 325.7 295.1 324.1 242Z" fill="url(#paint17_radial_148_576)"/>
</g>
<g filter="url(#filter1_d_148_576)">
<path d="M94.8 307C58.1 210.9 241.3 184.6 222.7 311C230.6 269.1 307.5 257.6 312.3 308.3C317.4 234.9 466.4 263.2 401.7 364.8C370.5 413.7 63.1 424.1 29.7 369C-1.59999 317.2 56.9 271.5 94.8 307Z" fill="url(#paint18_linear_148_576)"/>
<path d="M29.3 332.8C25.2 373.4 83.2 368.9 78.4 339.9C75.7 323.9 50.4 323 53.8 341.8C60.4 327.9 76.4 350 56 349.6C43.3 349.4 41.4 334.3 48.9 326.1C67.1 306.1 97.6 329.7 81.3 357.3C94.5 350.9 97.6 336.1 94.9 326.4C91 312.7 80.6 305.2 71.3 304.7C59.4 304.3 31.8 307.3 29.3 332.8Z" fill="url(#paint19_linear_148_576)"/>
<path d="M234.5 316.3C230.4 356.9 288.4 352.4 283.5 323.3C280.9 307.3 255.6 306.4 259 325.2C265.6 311.3 281.5 333.4 261.2 333C248.5 332.8 246.6 317.7 254.1 309.6C272.3 289.6 302.8 313.2 286.5 340.8C299.7 334.4 302.8 319.6 300.1 309.9C296.2 296.2 285.8 288.6 276.5 288.2C264.6 287.8 237.1 290.8 234.5 316.3Z" fill="url(#paint20_linear_148_576)"/>
<path d="M323.2 317.8C318.5 364.3 385 359.2 379.4 325.9C376.4 307.6 347.4 306.5 351.3 328.1C358.9 312.2 377.1 337.5 353.9 337C339.4 336.8 337.2 319.5 345.7 310.1C366.6 287.1 401.5 314.2 382.8 345.9C397.9 338.5 401.4 321.6 398.3 310.5C393.8 294.8 381.9 286.2 371.2 285.7C357.7 285.1 326.1 288.5 323.2 317.8Z" fill="url(#paint21_linear_148_576)"/>
<path d="M106.3 279.5C100.2 340.8 187.7 334.1 180.4 290.1C176.4 266 138.2 264.6 143.3 293C153.3 272 177.4 305.4 146.7 304.8C127.6 304.5 124.7 281.7 136 269.4C163.5 239.1 209.5 274.8 184.9 316.6C204.8 306.9 209.5 284.5 205.4 269.9C199.5 249.2 183.8 237.8 169.7 237.2C151.9 236.4 110.2 240.9 106.3 279.5Z" fill="url(#paint22_linear_148_576)"/>
</g>
<g filter="url(#filter2_f_148_576)">
<ellipse cx="225" cy="586" rx="112" ry="14" fill="#212121"/>
</g>
<defs>
<filter id="filter0_d_148_576" x="17" y="28" width="422.2" height="359.4" filterUnits="userSpaceOnUse" color-interpolation-filters="sRGB">
<feFlood flood-opacity="0" result="BackgroundImageFix"/>
<feColorMatrix in="SourceAlpha" type="matrix" values="0 0 0 0 0 0 0 0 0 0 0 0 0 0 0 0 0 0 127 0" result="hardAlpha"/>
<feOffset dy="-6"/>
<feGaussianBlur stdDeviation="5"/>
<feComposite in2="hardAlpha" operator="out"/>
<feColorMatrix type="matrix" values="0 0 0 0 0 0 0 0 0 0 0 0 0 0 0 0 0 0 0.25 0"/>
<feBlend mode="normal" in2="BackgroundImageFix" result="effect1_dropShadow_148_576"/>
<feBlend mode="normal" in="SourceGraphic" in2="effect1_dropShadow_148_576" result="shape"/>
</filter>
<filter id="filter1_d_148_576" x="10.8123" y="210.354" width="417.142" height="200.737" filterUnits="userSpaceOnUse" color-interpolation-filters="sRGB">
<feFlood flood-opacity="0" result="BackgroundImageFix"/>
<feColorMatrix in="SourceAlpha" type="matrix" values="0 0 0 0 0 0 0 0 0 0 0 0 0 0 0 0 0 0 127 0" result="hardAlpha"/>
<feOffset dy="-5"/>
<feGaussianBlur stdDeviation="5"/>
<feComposite in2="hardAlpha" operator="out"/>
<feColorMatrix type="matrix" values="0 0 0 0 0 0 0 0 0 0 0 0 0 0 0 0 0 0 0.25 0"/>
<feBlend mode="normal" in2="BackgroundImageFix" result="effect1_dropShadow_148_576"/>
<feBlend mode="normal" in="SourceGraphic" in2="effect1_dropShadow_148_576" result="shape"/>
</filter>
<filter id="filter2_f_148_576" x="66" y="525" width="318" height="122" filterUnits="userSpaceOnUse" color-interpolation-filters="sRGB">
<feFlood flood-opacity="0" result="BackgroundImageFix"/>
<feBlend mode="normal" in="SourceGraphic" in2="BackgroundImageFix" result="shape"/>
<feGaussianBlur stdDeviation="23.5" result="effect1_foregroundBlur_148_576"/>
</filter>
<linearGradient id="paint0_linear_148_576" x1="265.083" y1="150.274" x2="265.083" y2="273.825" gradientUnits="userSpaceOnUse">
<stop stop-color="#CFF9FF"/>
<stop offset="0.2066" stop-color="#C3F6FF"/>
<stop offset="0.5755" stop-color="#A5EDFF"/>
<stop offset="1" stop-color="#7AE0FF"/>
</linearGradient>
<linearGradient id="paint1_linear_148_576" x1="393.336" y1="186.004" x2="393.336" y2="227.42" gradientUnits="userSpaceOnUse">
<stop stop-color="white"/>
<stop offset="1" stop-color="white" stop-opacity="0"/>
</linearGradient>
<linearGradient id="paint2_linear_148_576" x1="242.286" y1="162.229" x2="242.286" y2="203.635" gradientUnits="userSpaceOnUse">
<stop stop-color="white"/>
<stop offset="1"/>
</linearGradient>
<linearGradient id="paint3_linear_148_576" x1="148.006" y1="162.683" x2="148.006" y2="210.136" gradientUnits="userSpaceOnUse">
<stop stop-color="white"/>
<stop offset="1" stop-color="white" stop-opacity="0"/>
</linearGradient>
<linearGradient id="paint4_linear_148_576" x1="322.476" y1="127.831" x2="319.52" y2="193.863" gradientUnits="userSpaceOnUse">
<stop stop-color="white"/>
<stop offset="1" stop-color="white" stop-opacity="0"/>
</linearGradient>
<radialGradient id="paint5_radial_148_576" cx="0" cy="0" r="1" gradientUnits="userSpaceOnUse" gradientTransform="translate(222.385 101.119) rotate(-1.80512) scale(44.1666 44.1666)">
<stop stop-color="#FFCA00"/>
<stop offset="0.4146" stop-color="#FFC800"/>
<stop offset="0.6041" stop-color="#FFC000"/>
<stop offset="0.7477" stop-color="#FFB400"/>
<stop offset="0.8682" stop-color="#FEA200"/>
<stop offset="0.9732" stop-color="#FE8A00"/>
<stop offset="1" stop-color="#FE8300"/>
</radialGradient>
<radialGradient id="paint6_radial_148_576" cx="0" cy="0" r="1" gradientUnits="userSpaceOnUse" gradientTransform="translate(163.02 127.032) rotate(-1.80512) scale(47.2508 47.2508)">
<stop stop-color="#FFCA00"/>
<stop offset="0.4146" stop-color="#FFC800"/>
<stop offset="0.6041" stop-color="#FFC000"/>
<stop offset="0.7477" stop-color="#FFB400"/>
<stop offset="0.8682" stop-color="#FEA200"/>
<stop offset="0.9732" stop-color="#FE8A00"/>
<stop offset="1" stop-color="#FE8300"/>
</radialGradient>
<radialGradient id="paint7_radial_148_576" cx="0" cy="0" r="1" gradientUnits="userSpaceOnUse" gradientTransform="translate(107.419 183.48) rotate(-1.80512) scale(47.8044)">
<stop stop-color="#FFCA00"/>
<stop offset="0.4146" stop-color="#FFC800"/>
<stop offset="0.6041" stop-color="#FFC000"/>
<stop offset="0.7477" stop-color="#FFB400"/>
<stop offset="0.8682" stop-color="#FEA200"/>
<stop offset="0.9732" stop-color="#FE8A00"/>
<stop offset="1" stop-color="#FE8300"/>
</radialGradient>
<radialGradient id="paint8_radial_148_576" cx="0" cy="0" r="1" gradientUnits="userSpaceOnUse" gradientTransform="translate(84.1369 250.754) rotate(-1.80512) scale(44.1707 44.1707)">
<stop stop-color="#FFCA00"/>
<stop offset="0.4146" stop-color="#FFC800"/>
<stop offset="0.6041" stop-color="#FFC000"/>
<stop offset="0.7477" stop-color="#FFB400"/>
<stop offset="0.8682" stop-color="#FEA200"/>
<stop offset="0.9732" stop-color="#FE8A00"/>
<stop offset="1" stop-color="#FE8300"/>
</radialGradient>
<radialGradient id="paint9_radial_148_576" cx="0" cy="0" r="1" gradientUnits="userSpaceOnUse" gradientTransform="translate(110.057 310.127) rotate(-1.80512) scale(47.2517 47.2517)">
<stop stop-color="#FFCA00"/>
<stop offset="0.4146" stop-color="#FFC800"/>
<stop offset="0.6041" stop-color="#FFC000"/>
<stop offset="0.7477" stop-color="#FFB400"/>
<stop offset="0.8682" stop-color="#FEA200"/>
<stop offset="0.9732" stop-color="#FE8A00"/>
<stop offset="1" stop-color="#FE8300"/>
</radialGradient>
<radialGradient id="paint10_radial_148_576" cx="0" cy="0" r="1" gradientUnits="userSpaceOnUse" gradientTransform="translate(166.503 365.737) rotate(-1.80512) scale(47.8049 47.8049)">
<stop stop-color="#FFCA00"/>
<stop offset="0.4146" stop-color="#FFC800"/>
<stop offset="0.6041" stop-color="#FFC000"/>
<stop offset="0.7477" stop-color="#FFB400"/>
<stop offset="0.8682" stop-color="#FEA200"/>
<stop offset="0.9732" stop-color="#FE8A00"/>
<stop offset="1" stop-color="#FE8300"/>
</radialGradient>
<radialGradient id="paint11_radial_148_576" cx="0" cy="0" r="1" gradientUnits="userSpaceOnUse" gradientTransform="translate(233.756 389.01) rotate(-1.80512) scale(44.1903 44.1903)">
<stop stop-color="#FFCA00"/>
<stop offset="0.4146" stop-color="#FFC800"/>
<stop offset="0.6041" stop-color="#FFC000"/>
<stop offset="0.7477" stop-color="#FFB400"/>
<stop offset="0.8682" stop-color="#FEA200"/>
<stop offset="0.9732" stop-color="#FE8A00"/>
<stop offset="1" stop-color="#FE8300"/>
</radialGradient>
<radialGradient id="paint12_radial_148_576" cx="0" cy="0" r="1" gradientUnits="userSpaceOnUse" gradientTransform="translate(293.135 363.114) rotate(-1.80512) scale(47.25 47.25)">
<stop stop-color="#FFCA00"/>
<stop offset="0.4146" stop-color="#FFC800"/>
<stop offset="0.6041" stop-color="#FFC000"/>
<stop offset="0.7477" stop-color="#FFB400"/>
<stop offset="0.8682" stop-color="#FEA200"/>
<stop offset="0.9732" stop-color="#FE8A00"/>
<stop offset="1" stop-color="#FE8300"/>
</radialGradient>
<radialGradient id="paint13_radial_148_576" cx="0" cy="0" r="1" gradientUnits="userSpaceOnUse" gradientTransform="translate(348.75 306.652) rotate(-1.80512) scale(47.8053)">
<stop stop-color="#FFCA00"/>
<stop offset="0.4146" stop-color="#FFC800"/>
<stop offset="0.6041" stop-color="#FFC000"/>
<stop offset="0.7477" stop-color="#FFB400"/>
<stop offset="0.8682" stop-color="#FEA200"/>
<stop offset="0.9732" stop-color="#FE8A00"/>
<stop offset="1" stop-color="#FE8300"/>
</radialGradient>
<radialGradient id="paint14_radial_148_576" cx="0" cy="0" r="1" gradientUnits="userSpaceOnUse" gradientTransform="translate(372.027 239.38) rotate(-1.80512) scale(44.1718 44.1718)">
<stop stop-color="#FFCA00"/>
<stop offset="0.4146" stop-color="#FFC800"/>
<stop offset="0.6041" stop-color="#FFC000"/>
<stop offset="0.7477" stop-color="#FFB400"/>
<stop offset="0.8682" stop-color="#FEA200"/>
<stop offset="0.9732" stop-color="#FE8A00"/>
<stop offset="1" stop-color="#FE8300"/>
</radialGradient>
<radialGradient id="paint15_radial_148_576" cx="0" cy="0" r="1" gradientUnits="userSpaceOnUse" gradientTransform="translate(346.116 180.009) rotate(-1.80512) scale(47.2467 47.2467)">
<stop stop-color="#FFCA00"/>
<stop offset="0.4146" stop-color="#FFC800"/>
<stop offset="0.6041" stop-color="#FFC000"/>
<stop offset="0.7477" stop-color="#FFB400"/>
<stop offset="0.8682" stop-color="#FEA200"/>
<stop offset="0.9732" stop-color="#FE8A00"/>
<stop offset="1" stop-color="#FE8300"/>
</radialGradient>
<radialGradient id="paint16_radial_148_576" cx="0" cy="0" r="1" gradientUnits="userSpaceOnUse" gradientTransform="translate(289.662 124.395) rotate(-1.80512) scale(47.7914 47.7914)">
<stop stop-color="#FFCA00"/>
<stop offset="0.4146" stop-color="#FFC800"/>
<stop offset="0.6041" stop-color="#FFC000"/>
<stop offset="0.7477" stop-color="#FFB400"/>
<stop offset="0.8682" stop-color="#FEA200"/>
<stop offset="0.9732" stop-color="#FE8A00"/>
<stop offset="1" stop-color="#FE8300"/>
</radialGradient>
<radialGradient id="paint17_radial_148_576" cx="0" cy="0" r="1" gradientUnits="userSpaceOnUse" gradientTransform="translate(234.693 220.215) rotate(-1.80512) scale(96.0331)">
<stop stop-color="#FFCA00"/>
<stop offset="0.2706" stop-color="#FFC600"/>
<stop offset="0.5273" stop-color="#FFBB00"/>
<stop offset="0.7776" stop-color="#FEA800"/>
<stop offset="1" stop-color="#FE9000"/>
</radialGradient>
<linearGradient id="paint18_linear_148_576" x1="219.435" y1="260.582" x2="219.435" y2="408.322" gradientUnits="userSpaceOnUse">
<stop stop-color="#99E8FF"/>
<stop offset="0.2786" stop-color="#96E6FF"/>
<stop offset="0.4778" stop-color="#8DE0FF"/>
<stop offset="0.6522" stop-color="#7DD5FF"/>
<stop offset="0.8123" stop-color="#67C6FF"/>
<stop offset="0.9614" stop-color="#4BB3FF"/>
<stop offset="1" stop-color="#42ADFF"/>
</linearGradient>
<linearGradient id="paint19_linear_148_576" x1="62.4339" y1="305.432" x2="62.4339" y2="356.003" gradientUnits="userSpaceOnUse">
<stop stop-color="white"/>
<stop offset="1" stop-color="white" stop-opacity="0"/>
</linearGradient>
<linearGradient id="paint20_linear_148_576" x1="267.661" y1="288.904" x2="267.661" y2="339.464" gradientUnits="userSpaceOnUse">
<stop stop-color="white"/>
<stop offset="1" stop-color="white" stop-opacity="0"/>
</linearGradient>
<linearGradient id="paint21_linear_148_576" x1="361.16" y1="286.37" x2="361.16" y2="344.313" gradientUnits="userSpaceOnUse">
<stop stop-color="white"/>
<stop offset="1" stop-color="white" stop-opacity="0"/>
</linearGradient>
<linearGradient id="paint22_linear_148_576" x1="154.297" y1="236.091" x2="157.907" y2="316.719" gradientUnits="userSpaceOnUse">
<stop stop-color="white"/>
<stop offset="1" stop-color="white" stop-opacity="0"/>
</linearGradient>
</defs>
</svg>
