<svg width="60" height="60" viewBox="0 0 60 60" fill="none" xmlns="http://www.w3.org/2000/svg">
<g id="muito-umido">
<g id="Group">
<path id="Vector" d="M35.8266 57.4533C29.48 57.4533 24.3066 52.28 24.3066 45.9333C24.3066 42.5067 25.88 39.2 28.5466 37.0267V10.36C28.5466 5.92 31.68 2.56 35.8266 2.56C39.9866 2.56 43.1066 5.90666 43.1066 10.36V37.0267C45.7733 39.2133 47.3466 42.5067 47.3466 45.9333C47.3466 52.28 42.1733 57.4533 35.8266 57.4533Z" fill="url(#paint0_linear_44_5222)"/>
<path id="Vector_2" d="M35.8267 56.4266C30.04 56.4266 25.32 51.72 25.32 45.92C25.32 42.5866 26.9333 39.4666 29.56 37.5066V10.3466C29.56 6.47997 32.2533 3.5733 35.8267 3.5733C39.4 3.5733 42.0933 6.4933 42.0933 10.3466V37.5066C44.72 39.4666 46.3333 42.6 46.3333 45.92C46.3333 51.72 41.6133 56.4266 35.8267 56.4266Z" fill="url(#paint1_linear_44_5222)"/>
<path id="Vector_3" d="M39.04 39.2133V10.3467C39.04 8.01334 37.6 6.61334 35.8266 6.61334C34.0533 6.61334 32.6133 8.00001 32.6133 10.3467V39.2133C30.1066 40.4133 28.3733 42.9733 28.3733 45.9333C28.3733 50.0533 31.7066 53.3867 35.8266 53.3867C39.9466 53.3867 43.28 50.0533 43.28 45.9333C43.28 42.96 41.5466 40.4133 39.04 39.2133Z" fill="url(#paint2_linear_44_5222)"/>
<path id="Vector_4" d="M39.04 39.2133V32.2H32.6V39.2133C30.0933 40.4133 28.36 42.9733 28.36 45.9333C28.36 50.0533 31.6933 53.3867 35.8133 53.3867C39.9333 53.3867 43.2667 50.0533 43.2667 45.9333C43.28 42.96 41.5466 40.4133 39.04 39.2133Z" fill="url(#paint3_radial_44_5222)"/>
<path id="Vector_5" d="M26.5067 7.20002H12.6533V6.37335H26.5067V7.20002ZM26.5067 9.20002H16.3067V10.0267H26.5067V9.20002ZM26.5067 12.0534H16.3067V12.88H26.5067V12.0534ZM26.5067 14.8934H16.3067V15.72H26.5067V14.8934ZM26.5067 17.7334H16.3067V18.56H26.5067V17.7334ZM26.5067 20.5734H12.6533V21.4H26.5067V20.5734ZM26.5067 23.4134H16.3067V24.24H26.5067V23.4134ZM26.5067 26.2533H16.3067V27.08H26.5067V26.2533ZM26.5067 29.0933H16.3067V29.92H26.5067V29.0933ZM26.5067 31.9333H16.3067V32.76H26.5067V31.9333ZM26.5067 34.7733H12.6533V35.6H26.5067V34.7733Z" fill="url(#paint4_linear_44_5222)"/>
</g>
</g>
<defs>
<linearGradient id="paint0_linear_44_5222" x1="35.8249" y1="4.66376" x2="35.8249" y2="56.3941" gradientUnits="userSpaceOnUse">
<stop stop-color="#A6EFFF"/>
<stop offset="0.5759" stop-color="#83CEFF"/>
<stop offset="1" stop-color="#66B3FF"/>
</linearGradient>
<linearGradient id="paint1_linear_44_5222" x1="35.8249" y1="5.60233" x2="35.8249" y2="55.4163" gradientUnits="userSpaceOnUse">
<stop stop-color="#E6FCFF"/>
<stop offset="0.321" stop-color="#E4FBFF"/>
<stop offset="0.5067" stop-color="#DBF9FF"/>
<stop offset="0.658" stop-color="#CDF6FF"/>
<stop offset="0.7907" stop-color="#B9F1FF"/>
<stop offset="0.91" stop-color="#A0EAFF"/>
<stop offset="1" stop-color="#87E4FF"/>
</linearGradient>
<linearGradient id="paint2_linear_44_5222" x1="32.605" y1="30" x2="39.3446" y2="30" gradientUnits="userSpaceOnUse">
<stop stop-color="#B5EDFF"/>
<stop offset="0.3741" stop-color="#A1E4FF"/>
<stop offset="1" stop-color="#78D0FF"/>
</linearGradient>
<radialGradient id="paint3_radial_44_5222" cx="0" cy="0" r="1" gradientUnits="userSpaceOnUse" gradientTransform="translate(32.1826 49.2785) scale(12.6797)">
<stop stop-color="#00B7FF"/>
<stop offset="0.2331" stop-color="#00B4FD"/>
<stop offset="0.4294" stop-color="#00A9F8"/>
<stop offset="0.6123" stop-color="#0098F0"/>
<stop offset="0.7871" stop-color="#007FE3"/>
<stop offset="0.9546" stop-color="#0060D4"/>
<stop offset="1" stop-color="#0056CF"/>
</radialGradient>
<linearGradient id="paint4_linear_44_5222" x1="12.6543" y1="20.9845" x2="26.5061" y2="20.9845" gradientUnits="userSpaceOnUse">
<stop stop-color="#FF5E00"/>
<stop offset="0.2363" stop-color="#FD5B00"/>
<stop offset="0.4353" stop-color="#F85000"/>
<stop offset="0.6206" stop-color="#EF3F00"/>
<stop offset="0.7978" stop-color="#E32600"/>
<stop offset="0.9677" stop-color="#D30700"/>
<stop offset="1" stop-color="#CF0000"/>
</linearGradient>
</defs>
</svg>
