<svg width="60" height="60" viewBox="0 0 60 60" fill="none" xmlns="http://www.w3.org/2000/svg">
<path d="M48.56 25.24C53.96 15.56 35.1733 10.24 37.2 24.0267C36.3467 19.4533 27.9067 19.1333 27.3867 24.6667C26.92 15.0667 7.80001 19.7867 15.68 33.28C18.88 38.76 36.7733 39.4267 50.08 35.6933C62.7333 32.16 55.1467 19.5067 48.56 25.24Z" fill="url(#paint0_linear_44_2265)"/>
<path d="M56.0667 27.7867C56.5067 32.2134 50.1867 31.7334 50.7067 28.56C51 26.8134 53.76 26.7067 53.3867 28.7734C52.6667 27.2534 50.92 29.6667 53.1467 29.6267C54.5333 29.6 54.7333 27.96 53.92 27.0667C51.9333 24.88 48.6 27.4534 50.3867 30.48C48.9467 29.7734 48.6133 28.16 48.9067 27.1067C49.3333 25.6134 50.4667 24.7867 51.48 24.7467C52.7733 24.68 55.7867 25 56.0667 27.7867Z" fill="url(#paint1_linear_44_2265)"/>
<path d="M35.92 24.6267C36.3733 29.0533 30.04 28.5733 30.56 25.3867C30.8533 23.64 33.6133 23.5467 33.24 25.6C32.52 24.08 30.7867 26.4933 33 26.4533C34.3867 26.4267 34.5867 24.7867 33.7733 23.8933C31.7867 21.7067 28.4533 24.28 30.24 27.3067C28.8 26.6 28.4667 24.9867 28.76 23.9333C29.1867 22.4267 30.32 21.6133 31.3333 21.5733C32.64 21.5067 35.64 21.8267 35.92 24.6267Z" fill="url(#paint2_linear_44_2265)"/>
<path d="M23.88 25.12C24.3867 30.2 17.1333 29.64 17.7333 26C18.0667 24 21.2267 23.88 20.8 26.24C19.9733 24.4933 17.9867 27.2667 20.52 27.2133C22.1067 27.1867 22.3467 25.3067 21.4133 24.28C19.1333 21.7733 15.32 24.72 17.36 28.1867C15.72 27.3867 15.32 25.5333 15.6667 24.32C16.16 22.6 17.4533 21.6667 18.6267 21.6133C20.1067 21.5467 23.56 21.92 23.88 25.12Z" fill="url(#paint3_linear_44_2265)"/>
<path d="M48.24 21.7867C48.9067 28.48 39.3467 27.7467 40.1467 22.9467C40.5867 20.3067 44.76 20.16 44.2 23.2667C43.1067 20.9733 40.48 24.6133 43.8267 24.56C45.92 24.52 46.2267 22.04 45 20.6933C42 17.3867 36.9733 21.28 39.6533 25.84C37.48 24.7867 36.96 22.3333 37.4133 20.7467C38.0533 18.48 39.7733 17.24 41.3067 17.1733C43.2667 17.08 47.8133 17.5733 48.24 21.7867Z" fill="url(#paint4_linear_44_2265)"/>
<path d="M27.4267 21.1733C27.4267 21.1733 25.04 18.4533 27.6133 14.3067C29.1467 11.84 31.68 8.93334 29.6667 5.86667C32.8933 8.78667 32.8667 11.32 31.36 14.9867C30.12 18.04 33.2667 20.9333 33.2667 20.9333L27.4267 21.1733Z" fill="url(#paint5_radial_44_2265)"/>
<path d="M22.08 24.2C22.08 24.2 18.6534 23.04 18.8134 18.16C18.9067 15.2533 19.6534 11.4667 16.3734 9.82666C20.6267 10.7467 21.8667 12.9467 22.4134 16.88C22.8667 20.1333 27.0267 21.08 27.0267 21.08L22.08 24.2Z" fill="url(#paint6_radial_44_2265)"/>
<path d="M18.96 29.5067C18.96 29.5067 15.4 30.2133 13.1067 25.9067C11.7333 23.3467 10.4933 19.6933 6.82666 19.9067C10.9733 18.5733 13.1467 19.8667 15.5733 23C17.5867 25.6 21.6667 24.32 21.6667 24.32L18.96 29.5067Z" fill="url(#paint7_radial_44_2265)"/>
<path d="M18.9067 35.6534C18.9067 35.6534 16.1867 38.04 12.04 35.4667C9.57334 33.9334 6.66667 31.4 3.60001 33.4267C6.53334 30.2 9.05334 30.2267 12.72 31.72C15.7733 32.96 18.6667 29.8134 18.6667 29.8134L18.9067 35.6534Z" fill="url(#paint8_radial_44_2265)"/>
<path d="M21.9333 41.0133C21.9333 41.0133 20.7733 44.44 15.8933 44.28C12.9867 44.1867 9.21333 43.44 7.56 46.72C8.48 42.4667 10.68 41.2267 14.6133 40.68C17.88 40.2267 18.8133 36.0667 18.8133 36.0667L21.9333 41.0133Z" fill="url(#paint9_radial_44_2265)"/>
<path d="M22.3733 50.6267C22.8133 50.4133 23.24 50.2 23.64 49.9867C27.9467 47.6933 27.24 44.1333 27.24 44.1333L22.0533 41.4133C22.0533 41.4133 23.3333 45.4933 20.7333 47.5067C19.4133 48.5333 18.4267 49.52 17.8267 50.6133C19.3467 50.56 20.8667 50.5867 22.3733 50.6267Z" fill="url(#paint10_radial_44_2265)"/>
<path d="M29.4533 50.36C29.3867 50.5333 29.32 50.6933 29.2667 50.8533C30.6 50.8933 31.92 50.9333 33.2533 50.9733C35.7467 46.8666 33.4 44.1866 33.4 44.1866L27.56 44.4266C27.5467 44.4133 30.6933 47.3066 29.4533 50.36Z" fill="url(#paint11_radial_44_2265)"/>
<path d="M38.4267 48.4667C38.56 49.4533 38.7467 50.3333 39 51.1067C39.3334 51.1067 39.68 51.12 40.0134 51.12C40.5867 51.0667 41.1734 51.0267 41.7467 50.9733C41.8 50.9733 41.84 50.96 41.8934 50.96C41.8267 49.6933 41.9734 48.3733 42.0134 47.1867C42.1734 42.3067 38.7467 41.1467 38.7467 41.1467L33.8 44.2667C33.8 44.2667 37.9734 45.2133 38.4267 48.4667Z" fill="url(#paint12_radial_44_2265)"/>
<path d="M41.8667 35.84C41.8667 35.84 45.4267 35.1334 47.72 39.44C49.0933 42 50.3333 45.6534 54 45.44C49.8533 46.7734 47.68 45.4934 45.24 42.3467C43.2267 39.7467 39.1467 41.0267 39.1467 41.0267L41.8667 35.84Z" fill="url(#paint13_radial_44_2265)"/>
<path d="M41.92 29.6933C41.92 29.6933 44.64 27.3066 48.7867 29.88C51.2533 31.4133 54.16 33.9466 57.2267 31.9333C54.3067 35.16 51.7733 35.1333 48.1067 33.6266C45.0533 32.3866 42.16 35.5333 42.16 35.5333L41.92 29.6933Z" fill="url(#paint14_radial_44_2265)"/>
<path d="M38.88 24.3333C38.88 24.3333 40.04 20.9067 44.92 21.0667C47.8267 21.16 51.6 21.9067 53.2533 18.6267C52.3333 22.88 50.1333 24.12 46.2 24.6667C42.9333 25.12 42.0133 29.28 42.0133 29.28L38.88 24.3333Z" fill="url(#paint15_radial_44_2265)"/>
<path d="M33.5734 21.2133C33.5734 21.2133 32.8667 17.6667 37.1734 15.36C39.7334 13.9867 43.3867 12.7467 43.16 9.07999C44.4934 13.2133 43.2 15.4 40.0667 17.8267C37.4667 19.84 38.7467 23.92 38.7467 23.92L33.5734 21.2133Z" fill="url(#paint16_radial_44_2265)"/>
<path d="M43.2133 32.2667C42.9867 25.2 37.08 19.6533 30.0133 19.8667C22.9467 20.0933 17.4 26 17.6133 33.0667C17.84 40.1333 23.7467 45.68 30.8133 45.4667C37.88 45.2533 43.4267 39.3467 43.2133 32.2667Z" fill="url(#paint17_radial_44_2265)"/>
<path d="M12.64 40.9333C7.74665 28.12 32.1733 24.6133 29.6933 41.4667C30.7466 35.88 41 34.3467 41.64 41.1067C42.32 31.32 62.1866 35.0933 53.56 48.64C49.4 55.16 8.41332 56.5467 3.95998 49.2C-0.213348 42.2933 7.58665 36.2 12.64 40.9333Z" fill="url(#paint18_linear_44_2265)"/>
<path d="M3.90664 44.3733C3.35997 49.7867 11.0933 49.1867 10.4533 45.32C10.0933 43.1867 6.71997 43.0667 7.1733 45.5733C8.0533 43.72 10.1866 46.6667 7.46664 46.6133C5.7733 46.5867 5.51997 44.5733 6.51997 43.48C8.94664 40.8133 13.0133 43.96 10.84 47.64C12.6 46.7867 13.0133 44.8133 12.6533 43.52C12.1333 41.6933 10.7466 40.6933 9.50664 40.6267C7.91997 40.5733 4.23997 40.9733 3.90664 44.3733Z" fill="url(#paint19_linear_44_2265)"/>
<path d="M31.2667 42.1733C30.72 47.5866 38.4533 46.9866 37.8 43.1066C37.4533 40.9733 34.08 40.8533 34.5333 43.36C35.4133 41.5066 37.5333 44.4533 34.8267 44.4C33.1333 44.3733 32.88 42.36 33.88 41.28C36.3067 38.6133 40.3733 41.76 38.2 45.44C39.96 44.5866 40.3733 42.6133 40.0133 41.32C39.4933 39.4933 38.1067 38.48 36.8667 38.4266C35.28 38.3733 31.6133 38.7733 31.2667 42.1733Z" fill="url(#paint20_linear_44_2265)"/>
<path d="M43.0933 42.3734C42.4667 48.5734 51.3333 47.8934 50.5867 43.4534C50.1867 41.0134 46.32 40.8667 46.84 43.7467C47.8533 41.6267 50.28 45 47.1867 44.9334C45.2533 44.9067 44.96 42.6 46.0933 41.3467C48.88 38.28 53.5333 41.8934 51.04 46.12C53.0533 45.1334 53.52 42.88 53.1067 41.4C52.5067 39.3067 50.92 38.16 49.4933 38.0934C47.6933 38.0134 43.48 38.4667 43.0933 42.3734Z" fill="url(#paint21_linear_44_2265)"/>
<path d="M14.1733 37.2667C13.36 45.44 25.0267 44.5467 24.0533 38.68C23.52 35.4667 18.4267 35.28 19.1067 39.0667C20.44 36.2667 23.6533 40.72 19.56 40.64C17.0133 40.6 16.6267 37.56 18.1333 35.92C21.8 31.88 27.9333 36.64 24.6533 42.2134C27.3067 40.92 27.9333 37.9334 27.3867 35.9867C26.6 33.2267 24.5067 31.7067 22.6267 31.6267C20.2533 31.52 14.6933 32.12 14.1733 37.2667Z" fill="url(#paint22_linear_44_2265)"/>
<defs>
<linearGradient id="paint0_linear_44_2265" x1="35.3445" y1="20.0365" x2="35.3445" y2="36.51" gradientUnits="userSpaceOnUse">
<stop stop-color="#CFF9FF"/>
<stop offset="0.2066" stop-color="#C3F6FF"/>
<stop offset="0.5755" stop-color="#A5EDFF"/>
<stop offset="1" stop-color="#7AE0FF"/>
</linearGradient>
<linearGradient id="paint1_linear_44_2265" x1="52.4449" y1="24.8005" x2="52.4449" y2="30.3227" gradientUnits="userSpaceOnUse">
<stop stop-color="white"/>
<stop offset="1" stop-color="white" stop-opacity="0"/>
</linearGradient>
<linearGradient id="paint2_linear_44_2265" x1="32.3048" y1="21.6305" x2="32.3048" y2="27.1513" gradientUnits="userSpaceOnUse">
<stop stop-color="white"/>
<stop offset="1"/>
</linearGradient>
<linearGradient id="paint3_linear_44_2265" x1="19.7342" y1="21.6911" x2="19.7342" y2="28.0181" gradientUnits="userSpaceOnUse">
<stop stop-color="white"/>
<stop offset="1" stop-color="white" stop-opacity="0"/>
</linearGradient>
<linearGradient id="paint4_linear_44_2265" x1="42.9968" y1="17.0442" x2="42.6026" y2="25.8484" gradientUnits="userSpaceOnUse">
<stop stop-color="white"/>
<stop offset="1" stop-color="white" stop-opacity="0"/>
</linearGradient>
<radialGradient id="paint5_radial_44_2265" cx="0" cy="0" r="1" gradientUnits="userSpaceOnUse" gradientTransform="translate(29.6514 13.4825) rotate(-1.80512) scale(5.88888)">
<stop stop-color="#FFCA00"/>
<stop offset="0.4146" stop-color="#FFC800"/>
<stop offset="0.6041" stop-color="#FFC000"/>
<stop offset="0.7477" stop-color="#FFB400"/>
<stop offset="0.8682" stop-color="#FEA200"/>
<stop offset="0.9732" stop-color="#FE8A00"/>
<stop offset="1" stop-color="#FE8300"/>
</radialGradient>
<radialGradient id="paint6_radial_44_2265" cx="0" cy="0" r="1" gradientUnits="userSpaceOnUse" gradientTransform="translate(21.736 16.9377) rotate(-1.80512) scale(6.30011)">
<stop stop-color="#FFCA00"/>
<stop offset="0.4146" stop-color="#FFC800"/>
<stop offset="0.6041" stop-color="#FFC000"/>
<stop offset="0.7477" stop-color="#FFB400"/>
<stop offset="0.8682" stop-color="#FEA200"/>
<stop offset="0.9732" stop-color="#FE8A00"/>
<stop offset="1" stop-color="#FE8300"/>
</radialGradient>
<radialGradient id="paint7_radial_44_2265" cx="0" cy="0" r="1" gradientUnits="userSpaceOnUse" gradientTransform="translate(14.3225 24.464) rotate(-1.80512) scale(6.37392)">
<stop stop-color="#FFCA00"/>
<stop offset="0.4146" stop-color="#FFC800"/>
<stop offset="0.6041" stop-color="#FFC000"/>
<stop offset="0.7477" stop-color="#FFB400"/>
<stop offset="0.8682" stop-color="#FEA200"/>
<stop offset="0.9732" stop-color="#FE8A00"/>
<stop offset="1" stop-color="#FE8300"/>
</radialGradient>
<radialGradient id="paint8_radial_44_2265" cx="0" cy="0" r="1" gradientUnits="userSpaceOnUse" gradientTransform="translate(11.2183 33.4339) rotate(-1.80512) scale(5.88943 5.88943)">
<stop stop-color="#FFCA00"/>
<stop offset="0.4146" stop-color="#FFC800"/>
<stop offset="0.6041" stop-color="#FFC000"/>
<stop offset="0.7477" stop-color="#FFB400"/>
<stop offset="0.8682" stop-color="#FEA200"/>
<stop offset="0.9732" stop-color="#FE8A00"/>
<stop offset="1" stop-color="#FE8300"/>
</radialGradient>
<radialGradient id="paint9_radial_44_2265" cx="0" cy="0" r="1" gradientUnits="userSpaceOnUse" gradientTransform="translate(14.6743 41.3502) rotate(-1.80512) scale(6.30023)">
<stop stop-color="#FFCA00"/>
<stop offset="0.4146" stop-color="#FFC800"/>
<stop offset="0.6041" stop-color="#FFC000"/>
<stop offset="0.7477" stop-color="#FFB400"/>
<stop offset="0.8682" stop-color="#FEA200"/>
<stop offset="0.9732" stop-color="#FE8A00"/>
<stop offset="1" stop-color="#FE8300"/>
</radialGradient>
<radialGradient id="paint10_radial_44_2265" cx="0" cy="0" r="1" gradientUnits="userSpaceOnUse" gradientTransform="translate(22.2004 48.7649) rotate(-1.80512) scale(6.37399)">
<stop stop-color="#FFCA00"/>
<stop offset="0.4146" stop-color="#FFC800"/>
<stop offset="0.6041" stop-color="#FFC000"/>
<stop offset="0.7477" stop-color="#FFB400"/>
<stop offset="0.8682" stop-color="#FEA200"/>
<stop offset="0.9732" stop-color="#FE8A00"/>
<stop offset="1" stop-color="#FE8300"/>
</radialGradient>
<radialGradient id="paint11_radial_44_2265" cx="0" cy="0" r="1" gradientUnits="userSpaceOnUse" gradientTransform="translate(31.1675 51.868) rotate(-1.80512) scale(5.89204)">
<stop stop-color="#FFCA00"/>
<stop offset="0.4146" stop-color="#FFC800"/>
<stop offset="0.6041" stop-color="#FFC000"/>
<stop offset="0.7477" stop-color="#FFB400"/>
<stop offset="0.8682" stop-color="#FEA200"/>
<stop offset="0.9732" stop-color="#FE8A00"/>
<stop offset="1" stop-color="#FE8300"/>
</radialGradient>
<radialGradient id="paint12_radial_44_2265" cx="0" cy="0" r="1" gradientUnits="userSpaceOnUse" gradientTransform="translate(39.0846 48.4151) rotate(-1.80512) scale(6.3 6.3)">
<stop stop-color="#FFCA00"/>
<stop offset="0.4146" stop-color="#FFC800"/>
<stop offset="0.6041" stop-color="#FFC000"/>
<stop offset="0.7477" stop-color="#FFB400"/>
<stop offset="0.8682" stop-color="#FEA200"/>
<stop offset="0.9732" stop-color="#FE8A00"/>
<stop offset="1" stop-color="#FE8300"/>
</radialGradient>
<radialGradient id="paint13_radial_44_2265" cx="0" cy="0" r="1" gradientUnits="userSpaceOnUse" gradientTransform="translate(46.5 40.887) rotate(-1.80512) scale(6.37404)">
<stop stop-color="#FFCA00"/>
<stop offset="0.4146" stop-color="#FFC800"/>
<stop offset="0.6041" stop-color="#FFC000"/>
<stop offset="0.7477" stop-color="#FFB400"/>
<stop offset="0.8682" stop-color="#FEA200"/>
<stop offset="0.9732" stop-color="#FE8A00"/>
<stop offset="1" stop-color="#FE8300"/>
</radialGradient>
<radialGradient id="paint14_radial_44_2265" cx="0" cy="0" r="1" gradientUnits="userSpaceOnUse" gradientTransform="translate(49.6036 31.9173) rotate(-1.80512) scale(5.88958 5.88958)">
<stop stop-color="#FFCA00"/>
<stop offset="0.4146" stop-color="#FFC800"/>
<stop offset="0.6041" stop-color="#FFC000"/>
<stop offset="0.7477" stop-color="#FFB400"/>
<stop offset="0.8682" stop-color="#FEA200"/>
<stop offset="0.9732" stop-color="#FE8A00"/>
<stop offset="1" stop-color="#FE8300"/>
</radialGradient>
<radialGradient id="paint15_radial_44_2265" cx="0" cy="0" r="1" gradientUnits="userSpaceOnUse" gradientTransform="translate(46.1488 24.0011) rotate(-1.80512) scale(6.29956 6.29956)">
<stop stop-color="#FFCA00"/>
<stop offset="0.4146" stop-color="#FFC800"/>
<stop offset="0.6041" stop-color="#FFC000"/>
<stop offset="0.7477" stop-color="#FFB400"/>
<stop offset="0.8682" stop-color="#FEA200"/>
<stop offset="0.9732" stop-color="#FE8A00"/>
<stop offset="1" stop-color="#FE8300"/>
</radialGradient>
<radialGradient id="paint16_radial_44_2265" cx="0" cy="0" r="1" gradientUnits="userSpaceOnUse" gradientTransform="translate(38.6216 16.586) rotate(-1.80512) scale(6.37219 6.37219)">
<stop stop-color="#FFCA00"/>
<stop offset="0.4146" stop-color="#FFC800"/>
<stop offset="0.6041" stop-color="#FFC000"/>
<stop offset="0.7477" stop-color="#FFB400"/>
<stop offset="0.8682" stop-color="#FEA200"/>
<stop offset="0.9732" stop-color="#FE8A00"/>
<stop offset="1" stop-color="#FE8300"/>
</radialGradient>
<radialGradient id="paint17_radial_44_2265" cx="0" cy="0" r="1" gradientUnits="userSpaceOnUse" gradientTransform="translate(31.2924 29.362) rotate(-1.80512) scale(12.8044)">
<stop stop-color="#FFCA00"/>
<stop offset="0.2706" stop-color="#FFC600"/>
<stop offset="0.5273" stop-color="#FFBB00"/>
<stop offset="0.7776" stop-color="#FEA800"/>
<stop offset="1" stop-color="#FE9000"/>
</radialGradient>
<linearGradient id="paint18_linear_44_2265" x1="29.2579" y1="34.7443" x2="29.2579" y2="54.4429" gradientUnits="userSpaceOnUse">
<stop stop-color="#99E8FF"/>
<stop offset="0.2786" stop-color="#96E6FF"/>
<stop offset="0.4778" stop-color="#8DE0FF"/>
<stop offset="0.6522" stop-color="#7DD5FF"/>
<stop offset="0.8123" stop-color="#67C6FF"/>
<stop offset="0.9614" stop-color="#4BB3FF"/>
<stop offset="1" stop-color="#42ADFF"/>
</linearGradient>
<linearGradient id="paint19_linear_44_2265" x1="8.32449" y1="40.7242" x2="8.32449" y2="47.4671" gradientUnits="userSpaceOnUse">
<stop stop-color="white"/>
<stop offset="1" stop-color="white" stop-opacity="0"/>
</linearGradient>
<linearGradient id="paint20_linear_44_2265" x1="35.6881" y1="38.5205" x2="35.6881" y2="45.2618" gradientUnits="userSpaceOnUse">
<stop stop-color="white"/>
<stop offset="1" stop-color="white" stop-opacity="0"/>
</linearGradient>
<linearGradient id="paint21_linear_44_2265" x1="48.1547" y1="38.1828" x2="48.1547" y2="45.9084" gradientUnits="userSpaceOnUse">
<stop stop-color="white"/>
<stop offset="1" stop-color="white" stop-opacity="0"/>
</linearGradient>
<linearGradient id="paint22_linear_44_2265" x1="20.5729" y1="31.4788" x2="21.0543" y2="42.2292" gradientUnits="userSpaceOnUse">
<stop stop-color="white"/>
<stop offset="1" stop-color="white" stop-opacity="0"/>
</linearGradient>
</defs>
</svg>
