<svg width="60" height="60" viewBox="0 0 60 60" fill="none" xmlns="http://www.w3.org/2000/svg">
<path d="M27.12 18.9067C27.12 18.9067 24.8133 16.28 27.2933 12.2933C28.7733 9.90667 31.2133 7.10667 29.28 4.16C32.3867 6.98667 32.36 9.41334 30.92 12.96C29.72 15.8933 32.7467 18.6933 32.7467 18.6933L27.12 18.9067Z" fill="url(#paint0_radial_44_854)"/>
<path d="M21.96 21.8267C21.96 21.8267 18.6533 20.7067 18.8133 16C18.9067 13.2 19.6133 9.54666 16.4533 7.95999C20.56 8.85332 21.7467 10.96 22.28 14.76C22.7067 17.9067 26.7333 18.8 26.7333 18.8L21.96 21.8267Z" fill="url(#paint1_radial_44_854)"/>
<path d="M18.96 26.9467C18.96 26.9467 15.5333 27.6267 13.32 23.48C12 21.0133 10.8 17.4933 7.26666 17.6933C11.2667 16.4133 13.36 17.6533 15.7067 20.68C17.6533 23.1867 21.5867 21.96 21.5867 21.96L18.96 26.9467Z" fill="url(#paint2_radial_44_854)"/>
<path d="M18.9067 32.88C18.9067 32.88 16.28 35.1867 12.2933 32.6933C9.90667 31.2133 7.10667 28.7733 4.16 30.72C6.98667 27.6133 9.41334 27.64 12.96 29.08C15.8933 30.28 18.6933 27.2533 18.6933 27.2533L18.9067 32.88Z" fill="url(#paint3_radial_44_854)"/>
<path d="M21.8267 38.04C21.8267 38.04 20.7067 41.3467 16 41.1867C13.2 41.0933 9.55999 40.3867 7.97333 43.5467C8.86666 39.4533 10.9733 38.2533 14.7733 37.7333C17.92 37.3067 18.8133 33.28 18.8133 33.28L21.8267 38.04Z" fill="url(#paint4_radial_44_854)"/>
<path d="M26.9467 41.0533C26.9467 41.0533 27.6267 44.48 23.48 46.6933C21.0134 48.0133 17.4933 49.2267 17.7067 52.7467C16.4267 48.76 17.6667 46.6533 20.68 44.3067C23.1867 42.36 21.96 38.4267 21.96 38.4267L26.9467 41.0533Z" fill="url(#paint5_radial_44_854)"/>
<path d="M32.88 41.0933C32.88 41.0933 35.1867 43.72 32.6933 47.7067C31.2133 50.0933 28.7733 52.8933 30.72 55.84C27.6133 53.0267 27.64 50.5867 29.08 47.04C30.28 44.1067 27.24 41.3067 27.24 41.3067L32.88 41.0933Z" fill="url(#paint6_radial_44_854)"/>
<path d="M38.04 38.1733C38.04 38.1733 41.3467 39.2933 41.2 44C41.1067 46.8 40.4 50.4533 43.5467 52.04C39.4533 51.1467 38.2533 49.0267 37.72 45.24C37.2933 42.0933 33.2667 41.2 33.2667 41.2L38.04 38.1733Z" fill="url(#paint7_radial_44_854)"/>
<path d="M41.04 33.0533C41.04 33.0533 44.4667 32.3733 46.68 36.52C48 38.9867 49.2 42.5067 52.7333 42.3067C48.7467 43.5867 46.64 42.3467 44.2933 39.32C42.3467 36.8133 38.4133 38.04 38.4133 38.04L41.04 33.0533Z" fill="url(#paint8_radial_44_854)"/>
<path d="M41.0933 27.12C41.0933 27.12 43.72 24.8133 47.72 27.3067C50.1067 28.7867 52.8933 31.2267 55.8533 29.28C53.04 32.3867 50.6 32.36 47.0533 30.92C44.12 29.72 41.32 32.76 41.32 32.76L41.0933 27.12Z" fill="url(#paint9_radial_44_854)"/>
<path d="M38.1733 21.96C38.1733 21.96 39.2933 18.6533 44 18.8C46.8 18.8933 50.44 19.6133 52.0267 16.4533C51.1467 20.5467 49.0267 21.7467 45.2267 22.2667C42.08 22.6933 41.1867 26.72 41.1867 26.72L38.1733 21.96Z" fill="url(#paint10_radial_44_854)"/>
<path d="M33.0533 18.9467C33.0533 18.9467 32.3733 15.52 36.52 13.3067C38.9867 11.9867 42.5067 10.7867 42.2934 7.25333C43.5734 11.24 42.3333 13.3467 39.32 15.6933C36.8133 17.64 38.04 21.5733 38.04 21.5733L33.0533 18.9467Z" fill="url(#paint11_radial_44_854)"/>
<path d="M42.3333 29.6133C42.12 22.8 36.4267 17.4533 29.6 17.6667C22.7867 17.88 17.44 23.5733 17.6533 30.4C17.8667 37.2133 23.56 42.56 30.3867 42.3467C37.2 42.12 42.56 36.4267 42.3333 29.6133Z" fill="url(#paint12_radial_44_854)"/>
<defs>
<radialGradient id="paint0_radial_44_854" cx="0" cy="0" r="1" gradientUnits="userSpaceOnUse" gradientTransform="translate(29.2683 11.4952) rotate(-1.80512) scale(5.67787)">
<stop stop-color="#FFCA00"/>
<stop offset="0.4146" stop-color="#FFC800"/>
<stop offset="0.6041" stop-color="#FFC000"/>
<stop offset="0.7477" stop-color="#FFB400"/>
<stop offset="0.8682" stop-color="#FEA200"/>
<stop offset="0.9732" stop-color="#FE8A00"/>
<stop offset="1" stop-color="#FE8300"/>
</radialGradient>
<radialGradient id="paint1_radial_44_854" cx="0" cy="0" r="1" gradientUnits="userSpaceOnUse" gradientTransform="translate(21.6366 14.8265) rotate(-1.80512) scale(6.07435)">
<stop stop-color="#FFCA00"/>
<stop offset="0.4146" stop-color="#FFC800"/>
<stop offset="0.6041" stop-color="#FFC000"/>
<stop offset="0.7477" stop-color="#FFB400"/>
<stop offset="0.8682" stop-color="#FEA200"/>
<stop offset="0.9732" stop-color="#FE8A00"/>
<stop offset="1" stop-color="#FE8300"/>
</radialGradient>
<radialGradient id="paint2_radial_44_854" cx="0" cy="0" r="1" gradientUnits="userSpaceOnUse" gradientTransform="translate(14.4888 22.083) rotate(-1.80512) scale(6.14562 6.14562)">
<stop stop-color="#FFCA00"/>
<stop offset="0.4146" stop-color="#FFC800"/>
<stop offset="0.6041" stop-color="#FFC000"/>
<stop offset="0.7477" stop-color="#FFB400"/>
<stop offset="0.8682" stop-color="#FEA200"/>
<stop offset="0.9732" stop-color="#FE8A00"/>
<stop offset="1" stop-color="#FE8300"/>
</radialGradient>
<radialGradient id="paint3_radial_44_854" cx="0" cy="0" r="1" gradientUnits="userSpaceOnUse" gradientTransform="translate(11.4957 30.7314) rotate(-1.80512) scale(5.67821)">
<stop stop-color="#FFCA00"/>
<stop offset="0.4146" stop-color="#FFC800"/>
<stop offset="0.6041" stop-color="#FFC000"/>
<stop offset="0.7477" stop-color="#FFB400"/>
<stop offset="0.8682" stop-color="#FEA200"/>
<stop offset="0.9732" stop-color="#FE8A00"/>
<stop offset="1" stop-color="#FE8300"/>
</radialGradient>
<radialGradient id="paint4_radial_44_854" cx="0" cy="0" r="1" gradientUnits="userSpaceOnUse" gradientTransform="translate(14.8278 38.364) rotate(-1.80512) scale(6.07447)">
<stop stop-color="#FFCA00"/>
<stop offset="0.4146" stop-color="#FFC800"/>
<stop offset="0.6041" stop-color="#FFC000"/>
<stop offset="0.7477" stop-color="#FFB400"/>
<stop offset="0.8682" stop-color="#FEA200"/>
<stop offset="0.9732" stop-color="#FE8A00"/>
<stop offset="1" stop-color="#FE8300"/>
</radialGradient>
<radialGradient id="paint5_radial_44_854" cx="0" cy="0" r="1" gradientUnits="userSpaceOnUse" gradientTransform="translate(22.0843 45.5131) rotate(-1.80512) scale(6.14499 6.14499)">
<stop stop-color="#FFCA00"/>
<stop offset="0.4146" stop-color="#FFC800"/>
<stop offset="0.6041" stop-color="#FFC000"/>
<stop offset="0.7477" stop-color="#FFB400"/>
<stop offset="0.8682" stop-color="#FEA200"/>
<stop offset="0.9732" stop-color="#FE8A00"/>
<stop offset="1" stop-color="#FE8300"/>
</radialGradient>
<radialGradient id="paint6_radial_44_854" cx="0" cy="0" r="1" gradientUnits="userSpaceOnUse" gradientTransform="translate(30.7311 48.5043) rotate(-1.80512) scale(5.67847 5.67847)">
<stop stop-color="#FFCA00"/>
<stop offset="0.4146" stop-color="#FFC800"/>
<stop offset="0.6041" stop-color="#FFC000"/>
<stop offset="0.7477" stop-color="#FFB400"/>
<stop offset="0.8682" stop-color="#FEA200"/>
<stop offset="0.9732" stop-color="#FE8A00"/>
<stop offset="1" stop-color="#FE8300"/>
</radialGradient>
<radialGradient id="paint7_radial_44_854" cx="0" cy="0" r="1" gradientUnits="userSpaceOnUse" gradientTransform="translate(38.3635 45.1755) rotate(-1.80512) scale(6.07478)">
<stop stop-color="#FFCA00"/>
<stop offset="0.4146" stop-color="#FFC800"/>
<stop offset="0.6041" stop-color="#FFC000"/>
<stop offset="0.7477" stop-color="#FFB400"/>
<stop offset="0.8682" stop-color="#FEA200"/>
<stop offset="0.9732" stop-color="#FE8A00"/>
<stop offset="1" stop-color="#FE8300"/>
</radialGradient>
<radialGradient id="paint8_radial_44_854" cx="0" cy="0" r="1" gradientUnits="userSpaceOnUse" gradientTransform="translate(45.5123 37.9174) rotate(-1.80512) scale(6.14564)">
<stop stop-color="#FFCA00"/>
<stop offset="0.4146" stop-color="#FFC800"/>
<stop offset="0.6041" stop-color="#FFC000"/>
<stop offset="0.7477" stop-color="#FFB400"/>
<stop offset="0.8682" stop-color="#FEA200"/>
<stop offset="0.9732" stop-color="#FE8A00"/>
<stop offset="1" stop-color="#FE8300"/>
</radialGradient>
<radialGradient id="paint9_radial_44_854" cx="0" cy="0" r="1" gradientUnits="userSpaceOnUse" gradientTransform="translate(48.5048 29.2692) rotate(-1.80512) scale(5.67824)">
<stop stop-color="#FFCA00"/>
<stop offset="0.4146" stop-color="#FFC800"/>
<stop offset="0.6041" stop-color="#FFC000"/>
<stop offset="0.7477" stop-color="#FFB400"/>
<stop offset="0.8682" stop-color="#FEA200"/>
<stop offset="0.9732" stop-color="#FE8A00"/>
<stop offset="1" stop-color="#FE8300"/>
</radialGradient>
<radialGradient id="paint10_radial_44_854" cx="0" cy="0" r="1" gradientUnits="userSpaceOnUse" gradientTransform="translate(45.1739 21.6368) rotate(-1.80512) scale(6.07374 6.07374)">
<stop stop-color="#FFCA00"/>
<stop offset="0.4146" stop-color="#FFC800"/>
<stop offset="0.6041" stop-color="#FFC000"/>
<stop offset="0.7477" stop-color="#FFB400"/>
<stop offset="0.8682" stop-color="#FEA200"/>
<stop offset="0.9732" stop-color="#FE8A00"/>
<stop offset="1" stop-color="#FE8300"/>
</radialGradient>
<radialGradient id="paint11_radial_44_854" cx="0" cy="0" r="1" gradientUnits="userSpaceOnUse" gradientTransform="translate(37.917 14.4875) rotate(-1.80512) scale(6.14381 6.1438)">
<stop stop-color="#FFCA00"/>
<stop offset="0.4146" stop-color="#FFC800"/>
<stop offset="0.6041" stop-color="#FFC000"/>
<stop offset="0.7477" stop-color="#FFB400"/>
<stop offset="0.8682" stop-color="#FEA200"/>
<stop offset="0.9732" stop-color="#FE8A00"/>
<stop offset="1" stop-color="#FE8300"/>
</radialGradient>
<radialGradient id="paint12_radial_44_854" cx="0" cy="0" r="1" gradientUnits="userSpaceOnUse" gradientTransform="translate(30.85 26.8055) rotate(-1.80512) scale(12.3453)">
<stop stop-color="#FFCA00"/>
<stop offset="0.2706" stop-color="#FFC600"/>
<stop offset="0.5273" stop-color="#FFBB00"/>
<stop offset="0.7776" stop-color="#FEA800"/>
<stop offset="1" stop-color="#FE9000"/>
</radialGradient>
</defs>
</svg>
